STARTFONT 2.1
COMMENT
COMMENT Converted from OpenType font "alef.bold.ttf" by "otf2bdf 3.0".
COMMENT
FONT -FreeType-Alef-Bold-R-Normal--25-180-100-100-P-113-ISO10646-1
SIZE 18 100 100
FONTBOUNDINGBOX 24 33 -1 -8
STARTPROPERTIES 19
FOUNDRY "FreeType"
FAMILY_NAME "Alef"
WEIGHT_NAME "Bold"
SLANT "R"
SETWIDTH_NAME "Normal"
ADD_STYLE_NAME ""
PIXEL_SIZE 25
POINT_SIZE 180
RESOLUTION_X 100
RESOLUTION_Y 100
SPACING "P"
AVERAGE_WIDTH 113
CHARSET_REGISTRY "ISO10646"
CHARSET_ENCODING "1"
FONT_ASCENT 25
FONT_DESCENT 8
COPYRIGHT "Copyright (c) 2012 by Hagilda. All rights reserved."
_OTF_FONTFILE "alef.bold.ttf"
_OTF_PSNAME "Alef-Bold"
ENDPROPERTIES
CHARS 423
STARTCHAR 0000
ENCODING 0
SWIDTH 1000 0
DWIDTH 25 0
BBX 0 0 0 0
BITMAP
ENDCHAR
STARTCHAR 000D
ENCODING 13
SWIDTH 1000 0
DWIDTH 25 0
BBX 0 0 0 0
BITMAP
ENDCHAR
STARTCHAR 0020
ENCODING 32
SWIDTH 280 0
DWIDTH 7 0
BBX 0 0 0 0
BITMAP
ENDCHAR
STARTCHAR 0021
ENCODING 33
SWIDTH 360 0
DWIDTH 9 0
BBX 4 18 2 0
BITMAP
70
F0
70
70
70
70
70
70
70
70
70
70
70
00
00
70
70
70
ENDCHAR
STARTCHAR 0022
ENCODING 34
SWIDTH 440 0
DWIDTH 11 0
BBX 10 7 1 11
BITMAP
7380
73C0
73C0
7380
6380
E300
C600
ENDCHAR
STARTCHAR 0023
ENCODING 35
SWIDTH 640 0
DWIDTH 16 0
BBX 13 11 1 1
BITMAP
0230
0620
0660
3FF8
0CC0
0CC0
0880
FFF0
1980
1100
3300
ENDCHAR
STARTCHAR 0024
ENCODING 36
SWIDTH 640 0
DWIDTH 16 0
BBX 13 21 1 -2
BITMAP
0700
0780
3FF0
7F70
F700
F700
F700
F700
7700
3F00
1FC0
07F0
0778
0738
0738
0738
0778
77F8
FFE0
1F00
0700
ENDCHAR
STARTCHAR 0025
ENCODING 37
SWIDTH 640 0
DWIDTH 16 0
BBX 13 18 1 0
BITMAP
3C00
6600
4600
C600
4600
6618
3C38
00E0
03C0
0F00
1C00
70F0
6198
0188
0188
0188
0198
00F0
ENDCHAR
STARTCHAR 0026
ENCODING 38
SWIDTH 800 0
DWIDTH 20 0
BBX 18 18 1 0
BITMAP
0FC000
1FE000
3C2000
3C0000
3C0000
1E0000
0E0000
1F3F80
3FBF80
7B8E00
71CE00
F1FC00
E0FC00
E07800
F07880
78FDC0
3FFF80
1F8F00
ENDCHAR
STARTCHAR 0027
ENCODING 39
SWIDTH 240 0
DWIDTH 6 0
BBX 4 7 1 11
BITMAP
70
70
70
70
60
E0
C0
ENDCHAR
STARTCHAR 0028
ENCODING 40
SWIDTH 400 0
DWIDTH 10 0
BBX 6 20 2 -3
BITMAP
0C
1C
38
38
70
70
F0
E0
E0
E0
E0
E0
E0
F0
70
70
30
38
1C
0C
ENDCHAR
STARTCHAR 0029
ENCODING 41
SWIDTH 400 0
DWIDTH 10 0
BBX 6 20 2 -3
BITMAP
C0
E0
70
38
38
38
1C
1C
1C
1C
1C
1C
1C
1C
38
38
38
70
60
C0
ENDCHAR
STARTCHAR 002A
ENCODING 42
SWIDTH 520 0
DWIDTH 13 0
BBX 9 8 2 10
BITMAP
0C00
0C00
4C80
FF80
3E00
1E00
3600
3300
ENDCHAR
STARTCHAR 002B
ENCODING 43
SWIDTH 600 0
DWIDTH 15 0
BBX 11 10 2 2
BITMAP
0E00
0E00
0E00
0E00
FFE0
FFE0
0E00
0E00
0E00
0E00
ENDCHAR
STARTCHAR 002C
ENCODING 44
SWIDTH 360 0
DWIDTH 9 0
BBX 4 6 2 -3
BITMAP
60
70
70
60
E0
C0
ENDCHAR
STARTCHAR 002D
ENCODING 45
SWIDTH 600 0
DWIDTH 15 0
BBX 10 2 2 6
BITMAP
FFC0
FFC0
ENDCHAR
STARTCHAR 002E
ENCODING 46
SWIDTH 320 0
DWIDTH 8 0
BBX 4 3 2 0
BITMAP
60
F0
60
ENDCHAR
STARTCHAR 002F
ENCODING 47
SWIDTH 640 0
DWIDTH 16 0
BBX 13 18 2 0
BITMAP
0038
0070
0070
00E0
00C0
01C0
0380
0380
0700
0600
0E00
1C00
1C00
3800
7000
7000
E000
C000
ENDCHAR
STARTCHAR 0030
ENCODING 48
SWIDTH 600 0
DWIDTH 15 0
BBX 13 13 1 0
BITMAP
0F80
3FE0
78F0
7078
E038
E038
E038
E038
E038
7078
78F0
3FE0
0F80
ENDCHAR
STARTCHAR 0031
ENCODING 49
SWIDTH 400 0
DWIDTH 10 0
BBX 7 13 1 0
BITMAP
0C
7E
FE
7E
5E
1E
1E
1E
1E
1E
1E
1E
1E
ENDCHAR
STARTCHAR 0032
ENCODING 50
SWIDTH 520 0
DWIDTH 13 0
BBX 11 13 1 0
BITMAP
3F80
7FC0
61C0
01E0
01E0
03C0
0F80
3F00
7800
7000
F000
FFC0
FFC0
ENDCHAR
STARTCHAR 0033
ENCODING 51
SWIDTH 520 0
DWIDTH 13 0
BBX 11 16 1 -2
BITMAP
7FC0
7FC0
0780
0F00
0E00
1F80
1FC0
01E0
00E0
00E0
00E0
01E0
03C0
1F80
FF00
F800
ENDCHAR
STARTCHAR 0034
ENCODING 52
SWIDTH 600 0
DWIDTH 15 0
BBX 13 16 1 -3
BITMAP
0700
0780
0700
0F00
0E00
1E00
1C00
3C00
38E0
78E0
70E0
FFF8
FFF8
00E0
00E0
00E0
ENDCHAR
STARTCHAR 0035
ENCODING 53
SWIDTH 560 0
DWIDTH 14 0
BBX 11 16 1 -2
BITMAP
7FC0
7FE0
7800
7800
7000
7F80
7FC0
01E0
00E0
00E0
00E0
01E0
03C0
1F80
FF00
F800
ENDCHAR
STARTCHAR 0036
ENCODING 54
SWIDTH 560 0
DWIDTH 14 0
BBX 12 16 1 0
BITMAP
03E0
0FE0
3E00
3C00
7800
7000
7FC0
FFE0
F0F0
F070
F070
F070
7070
78F0
3FE0
1F80
ENDCHAR
STARTCHAR 0037
ENCODING 55
SWIDTH 520 0
DWIDTH 13 0
BBX 11 16 1 -3
BITMAP
FFE0
FFE0
01E0
03C0
0780
0780
0F00
0F00
0E00
0E00
1E00
1E00
1C00
1C00
1C00
1C00
ENDCHAR
STARTCHAR 0038
ENCODING 56
SWIDTH 600 0
DWIDTH 15 0
BBX 13 16 1 0
BITMAP
0F80
3FE0
78E0
70F0
7070
78E0
3CE0
3FC0
7FF0
71F0
F070
F078
F070
70F0
3FE0
1F80
ENDCHAR
STARTCHAR 0039
ENCODING 57
SWIDTH 560 0
DWIDTH 14 0
BBX 12 16 1 -3
BITMAP
1F80
3FE0
78F0
F0F0
F070
F070
F070
F070
70F0
7FF0
1FF0
00E0
01E0
03C0
3F80
3E00
ENDCHAR
STARTCHAR 003A
ENCODING 58
SWIDTH 320 0
DWIDTH 8 0
BBX 4 11 2 0
BITMAP
60
F0
60
00
00
00
00
00
60
F0
60
ENDCHAR
STARTCHAR 003B
ENCODING 59
SWIDTH 360 0
DWIDTH 9 0
BBX 4 14 3 -3
BITMAP
E0
F0
E0
00
00
00
00
00
E0
F0
F0
E0
E0
C0
ENDCHAR
STARTCHAR 003C
ENCODING 60
SWIDTH 560 0
DWIDTH 14 0
BBX 12 13 1 0
BITMAP
0030
00F0
03F0
0FC0
7F00
FC00
F000
FC00
3F00
0FC0
03F0
00F0
0030
ENDCHAR
STARTCHAR 003D
ENCODING 61
SWIDTH 600 0
DWIDTH 15 0
BBX 11 6 2 4
BITMAP
FFE0
FFE0
0000
0000
FFE0
FFE0
ENDCHAR
STARTCHAR 003E
ENCODING 62
SWIDTH 560 0
DWIDTH 14 0
BBX 12 13 1 0
BITMAP
8000
E000
7800
1C00
0F00
03C0
00F0
03C0
0F00
1C00
7800
E000
8000
ENDCHAR
STARTCHAR 003F
ENCODING 63
SWIDTH 600 0
DWIDTH 15 0
BBX 10 18 2 0
BITMAP
7F00
FF80
C3C0
01C0
01C0
01C0
07C0
1F80
7F00
3C00
3800
3800
3800
0000
0000
3800
3800
3800
ENDCHAR
STARTCHAR 0040
ENCODING 64
SWIDTH 840 0
DWIDTH 21 0
BBX 19 18 1 -3
BITMAP
01F800
07FE00
1E0F00
380380
30F9C0
71F8C0
6398C0
6318E0
E31860
E31860
6338E0
6338C0
73FFC0
31DF00
380000
1E0000
0FC000
01C000
ENDCHAR
STARTCHAR 0041
ENCODING 65
SWIDTH 720 0
DWIDTH 18 0
BBX 16 18 1 0
BITMAP
03C0
03C0
07C0
07E0
0FE0
0EF0
0E70
1E70
1C78
1C38
3FF8
3FFC
381C
701E
700E
F00E
E00F
E007
ENDCHAR
STARTCHAR 0042
ENCODING 66
SWIDTH 640 0
DWIDTH 16 0
BBX 13 18 2 0
BITMAP
FFC0
FFE0
F0F0
F070
F070
F070
F0F0
FFE0
FFE0
F0F0
F038
F038
F038
F038
F038
F0F8
FFF0
FFC0
ENDCHAR
STARTCHAR 0043
ENCODING 67
SWIDTH 640 0
DWIDTH 16 0
BBX 13 18 1 0
BITMAP
07F0
1FF8
3C08
7800
7800
7000
7000
F000
F000
F000
F000
7000
7000
7800
7800
3C08
1FF8
07F8
ENDCHAR
STARTCHAR 0044
ENCODING 68
SWIDTH 680 0
DWIDTH 17 0
BBX 14 18 2 0
BITMAP
FF80
FFE0
F0F0
F078
F038
F03C
F03C
F01C
F01C
F01C
F01C
F03C
F03C
F038
F078
F0F0
FFE0
FF80
ENDCHAR
STARTCHAR 0045
ENCODING 69
SWIDTH 600 0
DWIDTH 15 0
BBX 11 18 2 0
BITMAP
FFE0
FFE0
F000
F000
F000
F000
F000
FF80
FF80
F000
F000
F000
F000
F000
F000
F000
FFE0
FFE0
ENDCHAR
STARTCHAR 0046
ENCODING 70
SWIDTH 560 0
DWIDTH 14 0
BBX 11 18 2 0
BITMAP
FFE0
FFE0
F000
F000
F000
F000
F000
FF80
FF80
F000
F000
F000
F000
F000
F000
F000
F000
F000
ENDCHAR
STARTCHAR 0047
ENCODING 71
SWIDTH 720 0
DWIDTH 18 0
BBX 15 18 1 0
BITMAP
07F0
1FFC
3C0C
7800
7800
7000
7000
F000
F000
F07E
F07E
700E
700E
780E
780E
3C0E
1FFE
07F8
ENDCHAR
STARTCHAR 0048
ENCODING 72
SWIDTH 760 0
DWIDTH 19 0
BBX 15 18 2 0
BITMAP
F01E
F01E
F01E
F01E
F01E
F01E
F01E
FFFE
FFFE
F01E
F01E
F01E
F01E
F01E
F01E
F01E
F01E
F01E
ENDCHAR
STARTCHAR 0049
ENCODING 73
SWIDTH 320 0
DWIDTH 8 0
BBX 4 18 2 0
BITMAP
F0
F0
F0
F0
F0
F0
F0
F0
F0
F0
F0
F0
F0
F0
F0
F0
F0
F0
ENDCHAR
STARTCHAR 004A
ENCODING 74
SWIDTH 400 0
DWIDTH 10 0
BBX 6 21 2 -3
BITMAP
3C
3C
3C
3C
3C
3C
3C
3C
3C
3C
3C
3C
3C
3C
3C
38
38
78
F0
E0
40
ENDCHAR
STARTCHAR 004B
ENCODING 75
SWIDTH 640 0
DWIDTH 16 0
BBX 13 18 2 0
BITMAP
F020
F070
F0F0
F1E0
F3C0
F780
F700
FE00
FC00
FE00
FF00
FF80
F780
F3C0
F1E0
F1F0
F0F0
F078
ENDCHAR
STARTCHAR 004C
ENCODING 76
SWIDTH 560 0
DWIDTH 14 0
BBX 11 18 2 0
BITMAP
F000
F000
F000
F000
F000
F000
F000
F000
F000
F000
F000
F000
F000
F000
F000
F000
FFE0
FFE0
ENDCHAR
STARTCHAR 004D
ENCODING 77
SWIDTH 920 0
DWIDTH 23 0
BBX 21 18 1 0
BITMAP
3E03E0
3E03E0
3E03E0
7E07E0
7F07E0
7F07F0
7707F0
730EF0
738E70
738E70
738C70
71DC70
F1DC70
F1DC70
F0F878
F0F878
E0F878
E0F038
ENDCHAR
STARTCHAR 004E
ENCODING 78
SWIDTH 760 0
DWIDTH 19 0
BBX 15 18 2 0
BITMAP
F00E
F80E
F80E
FC0E
FE0E
FE0E
F70E
F70E
F38E
F38E
F1CE
F0EE
F0EE
F07E
F07E
F03E
F03E
F01E
ENDCHAR
STARTCHAR 004F
ENCODING 79
SWIDTH 760 0
DWIDTH 19 0
BBX 16 18 1 0
BITMAP
07F0
1FFC
3C1E
380E
780F
7007
7007
7007
F007
F007
7007
7007
7007
780F
380E
3C1E
1FFC
07F0
ENDCHAR
STARTCHAR 0050
ENCODING 80
SWIDTH 640 0
DWIDTH 16 0
BBX 12 18 2 0
BITMAP
FFC0
FFE0
F0F0
F070
F070
F070
F070
F070
F0F0
FFE0
FF80
F000
F000
F000
F000
F000
F000
F000
ENDCHAR
STARTCHAR 0051
ENCODING 81
SWIDTH 760 0
DWIDTH 19 0
BBX 16 22 1 -4
BITMAP
07F0
1FFC
3C1E
380E
780F
7007
7007
7007
F007
F007
7007
7007
7007
780F
380E
3C1E
1FFC
07F0
0078
003C
001F
0006
ENDCHAR
STARTCHAR 0052
ENCODING 82
SWIDTH 640 0
DWIDTH 16 0
BBX 13 18 2 0
BITMAP
FF80
FFE0
F0F0
F0F0
F070
F070
F0F0
F0E0
FFE0
FF80
F700
F380
F3C0
F1E0
F0E0
F0F0
F078
F078
ENDCHAR
STARTCHAR 0053
ENCODING 83
SWIDTH 640 0
DWIDTH 16 0
BBX 13 18 1 0
BITMAP
0FC0
3FF0
7820
F000
F000
F000
7800
7F80
3FE0
0FF0
00F8
0078
0038
0038
0078
40F8
FFF0
3FC0
ENDCHAR
STARTCHAR 0054
ENCODING 84
SWIDTH 640 0
DWIDTH 16 0
BBX 14 18 1 0
BITMAP
FFFC
FFFC
0780
0780
0780
0780
0780
0780
0780
0780
0780
0780
0780
0780
0780
0780
0780
0780
ENDCHAR
STARTCHAR 0055
ENCODING 85
SWIDTH 760 0
DWIDTH 19 0
BBX 15 18 2 0
BITMAP
F01E
F01E
F01E
F01E
F01E
F01E
F01E
F01E
F01E
F01E
F01E
F01E
F01C
F01C
703C
7878
3FF0
0FE0
ENDCHAR
STARTCHAR 0056
ENCODING 86
SWIDTH 720 0
DWIDTH 18 0
BBX 15 18 2 0
BITMAP
E01E
E01E
F01C
703C
7038
7838
3878
3870
3C70
1CF0
1CE0
1EE0
0FE0
0FC0
0FC0
07C0
0780
0780
ENDCHAR
STARTCHAR 0057
ENCODING 87
SWIDTH 920 0
DWIDTH 23 0
BBX 21 18 1 0
BITMAP
E0F078
E0F878
E0F878
F1F878
F1DC70
F1DC70
71DC70
739C70
738E70
738E70
738EF0
7707F0
7F07F0
7F07E0
7E07E0
3E03E0
3E03E0
3E03E0
ENDCHAR
STARTCHAR 0058
ENCODING 88
SWIDTH 720 0
DWIDTH 18 0
BBX 16 18 1 0
BITMAP
300F
701E
781C
3C3C
3E78
1E70
0FF0
0FE0
07C0
03C0
07E0
07F0
0EF8
1E78
3C3C
383E
781E
F008
ENDCHAR
STARTCHAR 0059
ENCODING 89
SWIDTH 680 0
DWIDTH 17 0
BBX 15 18 1 0
BITMAP
F01E
701E
783C
383C
3C78
1C78
1EF0
0EF0
0FE0
07E0
07C0
03C0
0380
0380
0380
0380
0380
0380
ENDCHAR
STARTCHAR 005A
ENCODING 90
SWIDTH 640 0
DWIDTH 16 0
BBX 12 18 2 0
BITMAP
FFF0
FFF0
00E0
01E0
03C0
03C0
0780
0700
0F00
0E00
1E00
1C00
3C00
3800
7800
7000
FFF0
FFF0
ENDCHAR
STARTCHAR 005B
ENCODING 91
SWIDTH 400 0
DWIDTH 10 0
BBX 6 21 2 -2
BITMAP
FC
FC
F0
F0
F0
F0
F0
F0
F0
F0
F0
F0
F0
F0
F0
F0
F0
F0
F0
FC
FC
ENDCHAR
STARTCHAR 005C
ENCODING 92
SWIDTH 600 0
DWIDTH 15 0
BBX 11 18 2 0
BITMAP
E000
6000
7000
3000
3000
1800
1800
0C00
0C00
0E00
0600
0700
0300
0380
0180
01C0
00C0
00E0
ENDCHAR
STARTCHAR 005D
ENCODING 93
SWIDTH 400 0
DWIDTH 10 0
BBX 6 21 2 -2
BITMAP
FC
FC
3C
3C
3C
3C
3C
3C
3C
3C
3C
3C
3C
3C
3C
3C
3C
3C
3C
FC
FC
ENDCHAR
STARTCHAR 005E
ENCODING 94
SWIDTH 400 0
DWIDTH 10 0
BBX 9 8 1 5
BITMAP
1C00
3C00
3C00
6600
6600
E300
C300
C180
ENDCHAR
STARTCHAR 005F
ENCODING 95
SWIDTH 560 0
DWIDTH 14 0
BBX 10 2 2 0
BITMAP
FFC0
FFC0
ENDCHAR
STARTCHAR 0060
ENCODING 96
SWIDTH 280 0
DWIDTH 7 0
BBX 4 6 0 15
BITMAP
70
F0
E0
60
70
30
ENDCHAR
STARTCHAR 0061
ENCODING 97
SWIDTH 560 0
DWIDTH 14 0
BBX 11 13 1 0
BITMAP
1F80
3FC0
21E0
00E0
00E0
1FE0
7FE0
F8E0
E0E0
E0E0
E1E0
7FE0
3CE0
ENDCHAR
STARTCHAR 0062
ENCODING 98
SWIDTH 600 0
DWIDTH 15 0
BBX 12 18 2 0
BITMAP
E000
E000
E000
E000
E000
E7C0
EFE0
F8E0
F0F0
E0F0
E070
E070
E070
E0F0
E0E0
E1E0
FFC0
FF00
ENDCHAR
STARTCHAR 0063
ENCODING 99
SWIDTH 520 0
DWIDTH 13 0
BBX 11 13 1 0
BITMAP
0FC0
3FC0
7800
7000
F000
E000
E000
E000
F000
F000
7840
7FE0
1FC0
ENDCHAR
STARTCHAR 0064
ENCODING 100
SWIDTH 600 0
DWIDTH 15 0
BBX 12 18 1 0
BITMAP
0070
0070
0070
0070
0070
0FF0
3FF0
7870
7070
F070
E070
E070
E070
F070
F0F0
71F0
7F70
1E70
ENDCHAR
STARTCHAR 0065
ENCODING 101
SWIDTH 600 0
DWIDTH 15 0
BBX 12 13 1 0
BITMAP
0F80
3FE0
78F0
7070
F070
FFF0
FFF0
E000
F000
7000
7820
3FE0
1FC0
ENDCHAR
STARTCHAR 0066
ENCODING 102
SWIDTH 480 0
DWIDTH 12 0
BBX 11 18 1 0
BITMAP
0FE0
1FE0
1C00
3C00
3C00
FFC0
FFC0
3C00
3C00
3C00
3C00
3C00
3C00
3C00
3C00
3C00
FFC0
FFC0
ENDCHAR
STARTCHAR 0067
ENCODING 103
SWIDTH 600 0
DWIDTH 15 0
BBX 13 18 1 -5
BITMAP
1FF8
7FF8
71E0
F0E0
E0E0
F0E0
71E0
7FC0
3F80
7000
7000
7FC0
3FF0
0070
0070
60F0
7FE0
3F80
ENDCHAR
STARTCHAR 0068
ENCODING 104
SWIDTH 600 0
DWIDTH 15 0
BBX 12 18 2 0
BITMAP
E000
E000
E000
E000
E000
E3C0
EFE0
F8E0
F0F0
F0F0
E0F0
E0F0
E0F0
E0F0
E0F0
E0F0
E0F0
E0F0
ENDCHAR
STARTCHAR 0069
ENCODING 105
SWIDTH 320 0
DWIDTH 8 0
BBX 4 19 2 0
BITMAP
60
F0
F0
60
00
00
F0
F0
F0
F0
F0
F0
F0
F0
F0
F0
F0
F0
F0
ENDCHAR
STARTCHAR 006A
ENCODING 106
SWIDTH 360 0
DWIDTH 9 0
BBX 5 24 2 -5
BITMAP
30
78
78
30
00
00
78
78
78
78
78
78
78
78
78
78
78
78
78
78
70
F0
E0
C0
ENDCHAR
STARTCHAR 006B
ENCODING 107
SWIDTH 560 0
DWIDTH 14 0
BBX 11 18 2 0
BITMAP
E000
E000
E000
E000
E000
E080
E1C0
E3C0
E780
EF00
FC00
FC00
FE00
EF00
E780
E3C0
E3C0
E1E0
ENDCHAR
STARTCHAR 006C
ENCODING 108
SWIDTH 240 0
DWIDTH 6 0
BBX 4 18 1 0
BITMAP
F0
F0
F0
F0
F0
F0
F0
F0
F0
F0
F0
F0
F0
F0
F0
F0
F0
60
ENDCHAR
STARTCHAR 006D
ENCODING 109
SWIDTH 920 0
DWIDTH 23 0
BBX 20 13 2 0
BITMAP
63C3C0
F7EFE0
FCE8E0
F8F0E0
F0F0F0
F0F0F0
F0F0F0
F0F0F0
F0F0F0
F0F0F0
F0F0F0
F0F0F0
F0F0F0
ENDCHAR
STARTCHAR 006E
ENCODING 110
SWIDTH 600 0
DWIDTH 15 0
BBX 12 13 2 0
BITMAP
E3C0
EFE0
F8E0
F0F0
F0F0
E0F0
E0F0
E0F0
E0F0
E0F0
E0F0
E0F0
E0F0
ENDCHAR
STARTCHAR 006F
ENCODING 111
SWIDTH 600 0
DWIDTH 15 0
BBX 13 13 1 0
BITMAP
0F80
3FE0
78F0
7070
F070
F078
F078
F078
F070
7070
78F0
3FE0
0F80
ENDCHAR
STARTCHAR 0070
ENCODING 112
SWIDTH 600 0
DWIDTH 15 0
BBX 12 18 2 -5
BITMAP
E780
EFE0
F9E0
F0F0
E0F0
E0F0
E0F0
E0F0
E0F0
E0E0
F1E0
FFC0
FF00
E000
E000
E000
E000
E000
ENDCHAR
STARTCHAR 0071
ENCODING 113
SWIDTH 600 0
DWIDTH 15 0
BBX 12 18 1 -5
BITMAP
0FF0
3FF0
7870
7070
F070
F070
F070
F070
F070
F0F0
79F0
7F70
1E70
0070
0070
0070
0070
0070
ENDCHAR
STARTCHAR 0072
ENCODING 114
SWIDTH 480 0
DWIDTH 12 0
BBX 9 13 2 0
BITMAP
6380
EF80
FF00
F800
F000
F000
F000
F000
F000
F000
F000
F000
F000
ENDCHAR
STARTCHAR 0073
ENCODING 115
SWIDTH 520 0
DWIDTH 13 0
BBX 11 13 1 0
BITMAP
3F80
7F80
F000
F000
7800
7F00
1FC0
03C0
01E0
01E0
41C0
FFC0
3F00
ENDCHAR
STARTCHAR 0074
ENCODING 116
SWIDTH 480 0
DWIDTH 12 0
BBX 10 16 1 0
BITMAP
3800
3800
3800
FFC0
FFC0
3800
3800
3800
3800
3800
3800
3800
3800
3C00
1F80
1F80
ENDCHAR
STARTCHAR 0075
ENCODING 117
SWIDTH 600 0
DWIDTH 15 0
BBX 12 13 2 0
BITMAP
E0E0
E0E0
E0E0
E0E0
E0E0
E0E0
E0E0
E0E0
E0E0
E1E0
F3E0
7EF0
3CE0
ENDCHAR
STARTCHAR 0076
ENCODING 118
SWIDTH 560 0
DWIDTH 14 0
BBX 12 13 1 0
BITMAP
E0F0
F0F0
F0E0
70E0
71E0
79C0
39C0
3BC0
3F80
1F80
1F80
1F00
0F00
ENDCHAR
STARTCHAR 0077
ENCODING 119
SWIDTH 760 0
DWIDTH 19 0
BBX 17 13 1 0
BITMAP
E1C380
E1C780
E1C380
F1E380
70E380
70E380
71E380
79F300
3BF700
3B7700
3F7E00
3E7C00
1E3C00
ENDCHAR
STARTCHAR 0078
ENCODING 120
SWIDTH 600 0
DWIDTH 15 0
BBX 13 13 1 0
BITMAP
2038
7070
78E0
3DE0
1FC0
1F80
0F00
0F80
1FC0
1DE0
38F0
7870
F020
ENDCHAR
STARTCHAR 0079
ENCODING 121
SWIDTH 640 0
DWIDTH 16 0
BBX 12 18 2 -5
BITMAP
E0F0
E0F0
E0F0
E0F0
E0F0
E0F0
E0F0
E0F0
E0F0
E1F0
F3F0
7EF0
3CF0
00F0
00E0
21E0
7FC0
3F00
ENDCHAR
STARTCHAR 007A
ENCODING 122
SWIDTH 520 0
DWIDTH 13 0
BBX 11 13 1 0
BITMAP
7FE0
FFC0
03C0
0380
0780
0F00
0E00
1E00
3C00
3C00
7800
7FE0
7FE0
ENDCHAR
STARTCHAR 007B
ENCODING 123
SWIDTH 400 0
DWIDTH 10 0
BBX 7 21 1 -2
BITMAP
1E
3E
78
70
70
70
70
70
70
70
F0
70
70
70
70
70
70
70
78
3E
1E
ENDCHAR
STARTCHAR 007C
ENCODING 124
SWIDTH 320 0
DWIDTH 8 0
BBX 3 21 3 -2
BITMAP
E0
E0
E0
E0
E0
E0
E0
E0
E0
E0
E0
E0
E0
E0
E0
E0
E0
E0
E0
E0
E0
ENDCHAR
STARTCHAR 007D
ENCODING 125
SWIDTH 400 0
DWIDTH 10 0
BBX 6 21 2 -2
BITMAP
F0
F8
38
38
38
38
38
38
38
1C
1C
1C
38
38
38
38
38
38
38
F8
F0
ENDCHAR
STARTCHAR 007E
ENCODING 126
SWIDTH 560 0
DWIDTH 14 0
BBX 11 5 2 5
BITMAP
7C60
FFE0
FFE0
C7C0
8000
ENDCHAR
STARTCHAR 00A0
ENCODING 160
SWIDTH 280 0
DWIDTH 7 0
BBX 0 0 0 0
BITMAP
ENDCHAR
STARTCHAR 00A1
ENCODING 161
SWIDTH 320 0
DWIDTH 8 0
BBX 4 18 2 -5
BITMAP
E0
E0
E0
00
00
E0
E0
E0
E0
E0
E0
E0
E0
E0
E0
F0
F0
E0
ENDCHAR
STARTCHAR 00A2
ENCODING 162
SWIDTH 560 0
DWIDTH 14 0
BBX 11 19 1 -3
BITMAP
01C0
01C0
0180
0FE0
3FE0
7B80
7300
F700
E700
E700
E600
F600
FE00
7E20
7FE0
1FC0
1C00
1C00
1C00
ENDCHAR
STARTCHAR 00A3
ENCODING 163
SWIDTH 560 0
DWIDTH 14 0
BBX 13 18 1 0
BITMAP
0FF0
1FE0
1C00
1C00
1C00
1C00
1C00
FFC0
FFC0
1C00
1C00
1C00
1C00
1C00
1C00
1C00
1FF8
1FF8
ENDCHAR
STARTCHAR 00A5
ENCODING 165
SWIDTH 680 0
DWIDTH 17 0
BBX 15 18 1 0
BITMAP
F01E
701E
383C
3C38
1C78
1E70
0EF0
07E0
1FF8
1FF8
0380
0380
1FF8
1FF8
0380
0380
0380
0380
ENDCHAR
STARTCHAR 00A6
ENCODING 166
SWIDTH 320 0
DWIDTH 8 0
BBX 3 21 3 -2
BITMAP
E0
E0
E0
E0
E0
E0
E0
E0
00
00
00
00
00
E0
E0
E0
E0
E0
E0
E0
E0
ENDCHAR
STARTCHAR 00A7
ENCODING 167
SWIDTH 520 0
DWIDTH 13 0
BBX 11 18 1 0
BITMAP
1F80
7FC0
F000
F000
7800
7F00
7FC0
F3C0
F1E0
79E0
7FC0
1FC0
03C0
01E0
01E0
41C0
FFC0
7F00
ENDCHAR
STARTCHAR 00A8
ENCODING 168
SWIDTH 480 0
DWIDTH 12 0
BBX 10 3 1 14
BITMAP
6180
F3C0
6180
ENDCHAR
STARTCHAR 00A9
ENCODING 169
SWIDTH 800 0
DWIDTH 20 0
BBX 18 18 1 -3
BITMAP
03F000
0FFC00
1E0E00
380700
71F380
63F180
6701C0
C600C0
C600C0
C600C0
C600C0
6701C0
67F180
71F380
380700
1E0E00
0FFC00
03F000
ENDCHAR
STARTCHAR 00AB
ENCODING 171
SWIDTH 680 0
DWIDTH 17 0
BBX 11 12 3 0
BITMAP
0820
1C60
38C0
71C0
E380
C700
C700
E380
71C0
38E0
1C60
0820
ENDCHAR
STARTCHAR 00AC
ENCODING 172
SWIDTH 640 0
DWIDTH 16 0
BBX 11 6 2 2
BITMAP
FFE0
FFE0
0060
0060
0060
0060
ENDCHAR
STARTCHAR 00AD
ENCODING 173
SWIDTH 600 0
DWIDTH 15 0
BBX 10 2 2 6
BITMAP
FFC0
FFC0
ENDCHAR
STARTCHAR 00AE
ENCODING 174
SWIDTH 800 0
DWIDTH 20 0
BBX 18 18 1 -3
BITMAP
03F000
0FFC00
1E0E00
380700
73F380
63F980
6339C0
C338C0
C3F0C0
C3C0C0
C360C0
6371C0
633980
731B80
380700
1E0E00
0FFC00
03F000
ENDCHAR
STARTCHAR 00AF
ENCODING 175
SWIDTH 320 0
DWIDTH 8 0
BBX 8 2 0 15
BITMAP
FF
FF
ENDCHAR
STARTCHAR 00B0
ENCODING 176
SWIDTH 400 0
DWIDTH 10 0
BBX 8 8 1 11
BITMAP
3C
7E
E6
C2
C3
E6
7E
3C
ENDCHAR
STARTCHAR 00B1
ENCODING 177
SWIDTH 600 0
DWIDTH 15 0
BBX 11 13 2 0
BITMAP
0E00
0E00
0E00
0E00
FFE0
FFE0
0E00
0E00
0E00
0E00
0000
FFE0
FFE0
ENDCHAR
STARTCHAR 00B4
ENCODING 180
SWIDTH 280 0
DWIDTH 7 0
BBX 4 6 3 15
BITMAP
E0
F0
70
60
E0
C0
ENDCHAR
STARTCHAR 00B6
ENCODING 182
SWIDTH 280 0
DWIDTH 7 0
BBX 0 0 0 0
BITMAP
ENDCHAR
STARTCHAR 00B7
ENCODING 183
SWIDTH 280 0
DWIDTH 7 0
BBX 3 3 2 6
BITMAP
E0
E0
E0
ENDCHAR
STARTCHAR 00B8
ENCODING 184
SWIDTH 360 0
DWIDTH 9 0
BBX 5 5 1 -5
BITMAP
30
20
38
18
F0
ENDCHAR
STARTCHAR 00BB
ENCODING 187
SWIDTH 680 0
DWIDTH 17 0
BBX 12 12 2 0
BITMAP
4100
E300
7180
30C0
1860
0C30
0C30
1860
30C0
7180
E300
4100
ENDCHAR
STARTCHAR 00BF
ENCODING 191
SWIDTH 520 0
DWIDTH 13 0
BBX 11 18 1 -5
BITMAP
0300
0780
0300
0000
0000
0380
0380
0380
0780
1F80
3E00
7800
F000
F000
F000
7040
7FE0
1F80
ENDCHAR
STARTCHAR 00C0
ENCODING 192
SWIDTH 720 0
DWIDTH 18 0
BBX 16 25 1 0
BITMAP
0700
0700
0700
0700
0300
0180
0000
03C0
03C0
07C0
07E0
0FE0
0EF0
0E70
1E70
1C78
1C38
3FF8
3FFC
381C
701E
700E
F00E
E00F
E007
ENDCHAR
STARTCHAR 00C1
ENCODING 193
SWIDTH 720 0
DWIDTH 18 0
BBX 16 25 1 0
BITMAP
00E0
00E0
00E0
00E0
00C0
0180
0000
03C0
03C0
07C0
07E0
0FE0
0EF0
0E70
1E70
1C78
1C38
3FF8
3FFC
381C
701E
700E
F00E
E00F
E007
ENDCHAR
STARTCHAR 00C2
ENCODING 194
SWIDTH 720 0
DWIDTH 18 0
BBX 16 23 1 0
BITMAP
0180
03C0
0FE0
0C60
0000
03C0
03C0
07C0
07E0
0FE0
0EF0
0E70
1E70
1C78
1C38
3FF8
3FFC
381C
701E
700E
F00E
E00F
E007
ENDCHAR
STARTCHAR 00C3
ENCODING 195
SWIDTH 720 0
DWIDTH 18 0
BBX 16 22 1 0
BITMAP
0730
0FE0
0CE0
0000
03C0
03C0
07C0
07E0
0FE0
0EF0
0E70
1E70
1C78
1C38
3FF8
3FFC
381C
701E
700E
F00E
E00F
E007
ENDCHAR
STARTCHAR 00C4
ENCODING 196
SWIDTH 720 0
DWIDTH 18 0
BBX 16 22 1 0
BITMAP
0C30
1E78
0C30
0000
03C0
03C0
07C0
07E0
0FE0
0EF0
0E70
1E70
1C78
1C38
3FF8
3FFC
381C
701E
700E
F00E
E00F
E007
ENDCHAR
STARTCHAR 00C5
ENCODING 197
SWIDTH 720 0
DWIDTH 18 0
BBX 16 23 1 0
BITMAP
0380
0240
0240
0380
0000
03C0
03C0
07C0
07E0
0FE0
0EF0
0E70
1E70
1C78
1C38
3FF8
3FFC
381C
701E
700E
F00E
E00F
E007
ENDCHAR
STARTCHAR 00C6
ENCODING 198
SWIDTH 920 0
DWIDTH 23 0
BBX 21 18 0 0
BITMAP
007FF8
007FF8
00FC00
00FC00
01FC00
01FC00
03DC00
03DFE0
079FE0
079C00
0FFC00
1FFC00
1E1C00
3C1C00
3C1C00
781C00
781FF8
F01FF8
ENDCHAR
STARTCHAR 00C7
ENCODING 199
SWIDTH 640 0
DWIDTH 16 0
BBX 13 23 1 -5
BITMAP
07F0
1FF8
3C08
7800
7800
7000
7000
F000
F000
F000
F000
7000
7000
7800
7800
3C08
1FF8
07F8
0180
0180
00C0
00C0
07C0
ENDCHAR
STARTCHAR 00C8
ENCODING 200
SWIDTH 600 0
DWIDTH 15 0
BBX 11 25 2 0
BITMAP
1C00
3C00
1800
1C00
0C00
0C00
0000
FFE0
FFE0
F000
F000
F000
F000
F000
FF80
FF80
F000
F000
F000
F000
F000
F000
F000
FFE0
FFE0
ENDCHAR
STARTCHAR 00C9
ENCODING 201
SWIDTH 600 0
DWIDTH 15 0
BBX 11 25 2 0
BITMAP
0700
0780
0380
0300
0700
0600
0000
FFE0
FFE0
F000
F000
F000
F000
F000
FF80
FF80
F000
F000
F000
F000
F000
F000
F000
FFE0
FFE0
ENDCHAR
STARTCHAR 00CA
ENCODING 202
SWIDTH 600 0
DWIDTH 15 0
BBX 11 23 2 0
BITMAP
0400
1F00
3F80
3180
0000
FFE0
FFE0
F000
F000
F000
F000
F000
FF80
FF80
F000
F000
F000
F000
F000
F000
F000
FFE0
FFE0
ENDCHAR
STARTCHAR 00CB
ENCODING 203
SWIDTH 600 0
DWIDTH 15 0
BBX 11 22 2 0
BITMAP
71C0
71C0
71C0
0000
FFE0
FFE0
F000
F000
F000
F000
F000
FF80
FF80
F000
F000
F000
F000
F000
F000
F000
FFE0
FFE0
ENDCHAR
STARTCHAR 00CC
ENCODING 204
SWIDTH 320 0
DWIDTH 8 0
BBX 5 25 1 0
BITMAP
E0
E0
E0
60
70
30
00
78
78
78
78
78
78
78
78
78
78
78
78
78
78
78
78
78
78
ENDCHAR
STARTCHAR 00CD
ENCODING 205
SWIDTH 320 0
DWIDTH 8 0
BBX 5 25 2 0
BITMAP
38
38
38
38
30
30
00
F0
F0
F0
F0
F0
F0
F0
F0
F0
F0
F0
F0
F0
F0
F0
F0
F0
F0
ENDCHAR
STARTCHAR 00CE
ENCODING 206
SWIDTH 320 0
DWIDTH 8 0
BBX 7 23 1 0
BITMAP
30
78
FE
C6
00
78
78
78
78
78
78
78
78
78
78
78
78
78
78
78
78
78
78
ENDCHAR
STARTCHAR 00CF
ENCODING 207
SWIDTH 320 0
DWIDTH 8 0
BBX 9 22 0 0
BITMAP
E300
E780
E300
0000
3C00
3C00
3C00
3C00
3C00
3C00
3C00
3C00
3C00
3C00
3C00
3C00
3C00
3C00
3C00
3C00
3C00
3C00
ENDCHAR
STARTCHAR 00D0
ENCODING 208
SWIDTH 680 0
DWIDTH 17 0
BBX 17 18 -1 0
BITMAP
1FF000
1FFC00
1E1E00
1E0F00
1E0700
1E0780
1E0780
1E0380
FFC380
FFC380
1E0380
1E0780
1E0780
1E0700
1E0F00
1E1E00
1FFC00
1FF000
ENDCHAR
STARTCHAR 00D1
ENCODING 209
SWIDTH 760 0
DWIDTH 19 0
BBX 15 22 2 0
BITMAP
0730
0FE0
08C0
0000
F00E
F80E
F80E
FC0E
FE0E
FE0E
F70E
F70E
F38E
F38E
F1CE
F0EE
F0EE
F07E
F07E
F03E
F03E
F01E
ENDCHAR
STARTCHAR 00D2
ENCODING 210
SWIDTH 760 0
DWIDTH 19 0
BBX 16 25 1 0
BITMAP
0380
0780
0700
0300
0380
0180
0000
07F0
1FFC
3C1E
380E
780F
7007
7007
7007
F007
F007
7007
7007
7007
780F
380E
3C1E
1FFC
07F0
ENDCHAR
STARTCHAR 00D3
ENCODING 211
SWIDTH 760 0
DWIDTH 19 0
BBX 16 25 1 0
BITMAP
00E0
00F0
0060
00E0
00C0
00C0
0000
07F0
1FFC
3C1E
380E
780F
7007
7007
7007
F007
F007
7007
7007
7007
780F
380E
3C1E
1FFC
07F0
ENDCHAR
STARTCHAR 00D4
ENCODING 212
SWIDTH 760 0
DWIDTH 19 0
BBX 16 23 1 0
BITMAP
0080
03C0
07F0
0630
0000
07F0
1FFC
3C1E
380E
780F
7007
7007
7007
F007
F007
7007
7007
7007
780F
380E
3C1E
1FFC
07F0
ENDCHAR
STARTCHAR 00D5
ENCODING 213
SWIDTH 760 0
DWIDTH 19 0
BBX 16 22 1 0
BITMAP
0310
07F0
0CE0
0000
07F0
1FFC
3C1E
380E
780F
7007
7007
7007
F007
F007
7007
7007
7007
780F
380E
3C1E
1FFC
07F0
ENDCHAR
STARTCHAR 00D6
ENCODING 214
SWIDTH 760 0
DWIDTH 19 0
BBX 16 22 1 0
BITMAP
0E38
0E38
0E38
0000
07F0
1FFC
3C1E
380E
780F
7007
7007
7007
F007
F007
7007
7007
7007
780F
380E
3C1E
1FFC
07F0
ENDCHAR
STARTCHAR 00D7
ENCODING 215
SWIDTH 520 0
DWIDTH 13 0
BBX 9 10 2 2
BITMAP
4100
E380
7780
3F00
1E00
1E00
3F00
7780
E380
4100
ENDCHAR
STARTCHAR 00D8
ENCODING 216
SWIDTH 760 0
DWIDTH 19 0
BBX 16 18 1 0
BITMAP
07FE
1FFE
3C3C
381E
783F
707F
7067
70E7
F1C7
F1C7
F387
7307
7707
7E0F
7C0E
3C1E
3FFC
3FF0
ENDCHAR
STARTCHAR 00D9
ENCODING 217
SWIDTH 760 0
DWIDTH 19 0
BBX 15 25 2 0
BITMAP
0700
0F00
0E00
0600
0700
0300
0000
F01E
F01E
F01E
F01E
F01E
F01E
F01E
F01E
F01E
F01E
F01E
F01E
F01C
F01C
703C
7878
3FF0
0FE0
ENDCHAR
STARTCHAR 00DA
ENCODING 218
SWIDTH 760 0
DWIDTH 19 0
BBX 15 25 2 0
BITMAP
01C0
01E0
00C0
01C0
0180
0180
0000
F01E
F01E
F01E
F01E
F01E
F01E
F01E
F01E
F01E
F01E
F01E
F01E
F01C
F01C
703C
7878
3FF0
0FE0
ENDCHAR
STARTCHAR 00DB
ENCODING 219
SWIDTH 760 0
DWIDTH 19 0
BBX 15 23 2 0
BITMAP
0100
0780
0FE0
0C60
0000
F01E
F01E
F01E
F01E
F01E
F01E
F01E
F01E
F01E
F01E
F01E
F01E
F01C
F01C
703C
7878
3FF0
0FE0
ENDCHAR
STARTCHAR 00DC
ENCODING 220
SWIDTH 760 0
DWIDTH 19 0
BBX 15 22 2 0
BITMAP
1C70
1C70
1C70
0000
F01E
F01E
F01E
F01E
F01E
F01E
F01E
F01E
F01E
F01E
F01E
F01E
F01C
F01C
703C
7878
3FF0
0FE0
ENDCHAR
STARTCHAR 00DD
ENCODING 221
SWIDTH 680 0
DWIDTH 17 0
BBX 15 25 1 0
BITMAP
01C0
01E0
00E0
00C0
01C0
0180
0000
F01E
701E
783C
383C
3C78
1C78
1EF0
0EF0
0FE0
07E0
07C0
03C0
0380
0380
0380
0380
0380
0380
ENDCHAR
STARTCHAR 00DE
ENCODING 222
SWIDTH 640 0
DWIDTH 16 0
BBX 12 18 2 0
BITMAP
F000
F000
F000
FFC0
FFE0
F0F0
F070
F070
F070
F070
F070
F0F0
FFE0
FF80
F000
F000
F000
F000
ENDCHAR
STARTCHAR 00DF
ENCODING 223
SWIDTH 640 0
DWIDTH 16 0
BBX 13 19 2 0
BITMAP
1F80
3FE0
78E0
F0F0
F070
F0F0
F0E0
F0E0
F3C0
F7E0
F1F0
F078
F078
F078
F078
F070
F0F0
F3E0
F780
ENDCHAR
STARTCHAR 00E0
ENCODING 224
SWIDTH 560 0
DWIDTH 14 0
BBX 11 21 1 0
BITMAP
0E00
1E00
1C00
0C00
0E00
0600
0000
0000
1F80
3FC0
21E0
00E0
00E0
1FE0
7FE0
F8E0
E0E0
E0E0
E1E0
7FE0
3CE0
ENDCHAR
STARTCHAR 00E1
ENCODING 225
SWIDTH 560 0
DWIDTH 14 0
BBX 11 21 1 0
BITMAP
0380
03C0
0380
0380
0300
0300
0000
0000
1F80
3FC0
21E0
00E0
00E0
1FE0
7FE0
F8E0
E0E0
E0E0
E1E0
7FE0
3CE0
ENDCHAR
STARTCHAR 00E2
ENCODING 226
SWIDTH 560 0
DWIDTH 14 0
BBX 11 19 1 0
BITMAP
0200
0F00
1FC0
18C0
0000
0000
1F80
3FC0
21E0
00E0
00E0
1FE0
7FE0
F8E0
E0E0
E0E0
E1E0
7FE0
3CE0
ENDCHAR
STARTCHAR 00E3
ENCODING 227
SWIDTH 560 0
DWIDTH 14 0
BBX 11 18 1 0
BITMAP
1C40
1FC0
3380
0000
0000
1F80
3FC0
21E0
00E0
00E0
1FE0
7FE0
F8E0
E0E0
E0E0
E1E0
7FE0
3CE0
ENDCHAR
STARTCHAR 00E4
ENCODING 228
SWIDTH 560 0
DWIDTH 14 0
BBX 11 18 1 0
BITMAP
38C0
38E0
38C0
0000
0000
1F80
3FC0
21E0
00E0
00E0
1FE0
7FE0
F8E0
E0E0
E0E0
E1E0
7FE0
3CE0
ENDCHAR
STARTCHAR 00E5
ENCODING 229
SWIDTH 560 0
DWIDTH 14 0
BBX 11 19 1 0
BITMAP
0700
0980
0980
0700
0000
0000
1F80
3FC0
21E0
00E0
00E0
1FE0
7FE0
F8E0
E0E0
E0E0
E1E0
7FE0
3CE0
ENDCHAR
STARTCHAR 00E6
ENCODING 230
SWIDTH 880 0
DWIDTH 22 0
BBX 20 13 1 0
BITMAP
1F9F80
3FFFC0
21F0E0
00E0F0
00E070
1FFFF0
7FFFF0
F8E000
E0E000
E0E000
E1F040
7F7FE0
3E1FC0
ENDCHAR
STARTCHAR 00E7
ENCODING 231
SWIDTH 520 0
DWIDTH 13 0
BBX 11 18 1 -5
BITMAP
0FC0
3FC0
7800
7000
F000
E000
E000
E000
F000
F000
7840
7FE0
1FC0
0600
0600
0300
0300
1E00
ENDCHAR
STARTCHAR 00E8
ENCODING 232
SWIDTH 600 0
DWIDTH 15 0
BBX 12 21 1 0
BITMAP
0E00
1E00
1C00
0C00
0E00
0600
0000
0000
0F80
3FE0
78F0
7070
F070
FFF0
FFF0
E000
F000
7000
7820
3FE0
1FC0
ENDCHAR
STARTCHAR 00E9
ENCODING 233
SWIDTH 600 0
DWIDTH 15 0
BBX 12 21 1 0
BITMAP
0380
03C0
0180
0380
0300
0300
0000
0000
0F80
3FE0
78F0
7070
F070
FFF0
FFF0
E000
F000
7000
7820
3FE0
1FC0
ENDCHAR
STARTCHAR 00EA
ENCODING 234
SWIDTH 600 0
DWIDTH 15 0
BBX 12 19 1 0
BITMAP
0200
0F00
1FC0
18C0
0000
0000
0F80
3FE0
78F0
7070
F070
FFF0
FFF0
E000
F000
7000
7820
3FE0
1FC0
ENDCHAR
STARTCHAR 00EB
ENCODING 235
SWIDTH 600 0
DWIDTH 15 0
BBX 12 18 1 0
BITMAP
38E0
38E0
38E0
0000
0000
0F80
3FE0
78F0
7070
F070
FFF0
FFF0
E000
F000
7000
7820
3FE0
1FC0
ENDCHAR
STARTCHAR 00EC
ENCODING 236
SWIDTH 320 0
DWIDTH 8 0
BBX 5 21 1 0
BITMAP
E0
E0
E0
E0
60
30
00
00
78
78
78
78
78
78
78
78
78
78
78
78
78
ENDCHAR
STARTCHAR 00ED
ENCODING 237
SWIDTH 320 0
DWIDTH 8 0
BBX 5 21 2 0
BITMAP
38
38
38
30
70
60
00
00
F0
F0
F0
F0
F0
F0
F0
F0
F0
F0
F0
F0
F0
ENDCHAR
STARTCHAR 00EE
ENCODING 238
SWIDTH 320 0
DWIDTH 8 0
BBX 8 19 0 0
BITMAP
18
3C
7E
C3
00
00
1C
1C
1C
1C
1C
1C
1C
1C
1C
1C
1C
1C
1C
ENDCHAR
STARTCHAR 00EF
ENCODING 239
SWIDTH 320 0
DWIDTH 8 0
BBX 10 18 -1 0
BITMAP
6180
F3C0
6180
0000
0000
1E00
1E00
1E00
1E00
1E00
1E00
1E00
1E00
1E00
1E00
1E00
1E00
1E00
ENDCHAR
STARTCHAR 00F0
ENCODING 240
SWIDTH 600 0
DWIDTH 15 0
BBX 13 20 1 0
BITMAP
0040
00C0
3DC0
3F80
0FC0
0CE0
08F0
0070
1FF0
7FF8
78F8
F078
F038
F078
F078
F078
7070
78F0
3FE0
0F80
ENDCHAR
STARTCHAR 00F1
ENCODING 241
SWIDTH 600 0
DWIDTH 15 0
BBX 12 18 2 0
BITMAP
1CC0
3F80
2300
0000
0000
E3C0
EFE0
F8E0
F0F0
F0F0
E0F0
E0F0
E0F0
E0F0
E0F0
E0F0
E0F0
E0F0
ENDCHAR
STARTCHAR 00F2
ENCODING 242
SWIDTH 600 0
DWIDTH 15 0
BBX 13 21 1 0
BITMAP
0E00
1E00
1C00
0C00
0E00
0600
0000
0000
0F80
3FE0
78F0
7070
F070
F078
F078
F078
F070
7070
78F0
3FE0
0F80
ENDCHAR
STARTCHAR 00F3
ENCODING 243
SWIDTH 600 0
DWIDTH 15 0
BBX 13 21 1 0
BITMAP
0380
03C0
0180
0380
0300
0300
0000
0000
0F80
3FE0
78F0
7070
F070
F078
F078
F078
F070
7070
78F0
3FE0
0F80
ENDCHAR
STARTCHAR 00F4
ENCODING 244
SWIDTH 600 0
DWIDTH 15 0
BBX 13 19 1 0
BITMAP
0200
0F00
1FC0
18C0
0000
0000
0F80
3FE0
78F0
7070
F070
F078
F078
F078
F070
7070
78F0
3FE0
0F80
ENDCHAR
STARTCHAR 00F5
ENCODING 245
SWIDTH 600 0
DWIDTH 15 0
BBX 13 18 1 0
BITMAP
0C40
1FC0
3380
0000
0000
0F80
3FE0
78F0
7070
F070
F078
F078
F078
F070
7070
78F0
3FE0
0F80
ENDCHAR
STARTCHAR 00F6
ENCODING 246
SWIDTH 600 0
DWIDTH 15 0
BBX 13 18 1 0
BITMAP
38E0
38E0
38E0
0000
0000
0F80
3FE0
78F0
7070
F070
F078
F078
F078
F070
7070
78F0
3FE0
0F80
ENDCHAR
STARTCHAR 00F7
ENCODING 247
SWIDTH 600 0
DWIDTH 15 0
BBX 11 12 2 1
BITMAP
0E00
0E00
0E00
0000
0000
FFE0
FFE0
0000
0000
0E00
0E00
0E00
ENDCHAR
STARTCHAR 00F8
ENCODING 248
SWIDTH 600 0
DWIDTH 15 0
BBX 13 17 1 -2
BITMAP
0038
0030
0FF0
3FE0
79F0
71F0
F3F0
F3F8
F778
FE78
FE70
7C70
78F0
3FE0
7F80
6000
E000
ENDCHAR
STARTCHAR 00F9
ENCODING 249
SWIDTH 600 0
DWIDTH 15 0
BBX 12 21 2 0
BITMAP
1C00
3C00
1C00
1C00
0C00
0C00
0000
0000
E0E0
E0E0
E0E0
E0E0
E0E0
E0E0
E0E0
E0E0
E0E0
E1E0
F3E0
7EF0
3CE0
ENDCHAR
STARTCHAR 00FA
ENCODING 250
SWIDTH 600 0
DWIDTH 15 0
BBX 12 21 2 0
BITMAP
0300
0780
0380
0300
0700
0600
0000
0000
E0E0
E0E0
E0E0
E0E0
E0E0
E0E0
E0E0
E0E0
E0E0
E1E0
F3E0
7EF0
3CE0
ENDCHAR
STARTCHAR 00FB
ENCODING 251
SWIDTH 600 0
DWIDTH 15 0
BBX 12 19 2 0
BITMAP
0400
0F00
3F80
3180
0000
0000
E0E0
E0E0
E0E0
E0E0
E0E0
E0E0
E0E0
E0E0
E0E0
E1E0
F3E0
7EF0
3CE0
ENDCHAR
STARTCHAR 00FC
ENCODING 252
SWIDTH 600 0
DWIDTH 15 0
BBX 12 18 2 0
BITMAP
71C0
71C0
71C0
0000
0000
E0E0
E0E0
E0E0
E0E0
E0E0
E0E0
E0E0
E0E0
E0E0
E1E0
F3E0
7EF0
3CE0
ENDCHAR
STARTCHAR 00FD
ENCODING 253
SWIDTH 640 0
DWIDTH 16 0
BBX 12 26 2 -5
BITMAP
0380
0380
0380
0300
0700
0600
0000
0000
E0F0
E0F0
E0F0
E0F0
E0F0
E0F0
E0F0
E0F0
E0F0
E1F0
F3F0
7EF0
3CF0
00F0
00E0
21E0
7FC0
3F00
ENDCHAR
STARTCHAR 00FE
ENCODING 254
SWIDTH 600 0
DWIDTH 15 0
BBX 11 23 2 -5
BITMAP
E000
E000
E000
E000
E000
E780
FFC0
F1E0
F0E0
E0E0
E0E0
E0E0
E0E0
E0E0
E0E0
E1C0
FFC0
FF00
E000
E000
E000
E000
E000
ENDCHAR
STARTCHAR 00FF
ENCODING 255
SWIDTH 640 0
DWIDTH 16 0
BBX 12 23 2 -5
BITMAP
31C0
79C0
31C0
0000
0000
E0F0
E0F0
E0F0
E0F0
E0F0
E0F0
E0F0
E0F0
E0F0
E1F0
F3F0
7EF0
3CF0
00F0
00E0
21E0
7FC0
3F00
ENDCHAR
STARTCHAR 0100
ENCODING 256
SWIDTH 720 0
DWIDTH 18 0
BBX 16 22 1 0
BITMAP
0FF0
0FF0
0000
0000
03C0
03C0
07C0
07E0
0FE0
0EF0
0E70
1E70
1C78
1C38
3FF8
3FFC
381C
701E
700E
F00E
E00F
E007
ENDCHAR
STARTCHAR 0101
ENCODING 257
SWIDTH 560 0
DWIDTH 14 0
BBX 11 17 1 0
BITMAP
1FC0
1FC0
0000
0000
1F80
3FC0
21E0
00E0
00E0
1FE0
7FE0
F8E0
E0E0
E0E0
E1E0
7FE0
3CE0
ENDCHAR
STARTCHAR 0102
ENCODING 258
SWIDTH 720 0
DWIDTH 18 0
BBX 16 24 1 0
BITMAP
0810
0C30
07E0
03C0
0000
0000
03C0
03C0
07C0
07E0
0FE0
0EF0
0E70
1E70
1C78
1C38
3FF8
3FFC
381C
701E
700E
F00E
E00F
E007
ENDCHAR
STARTCHAR 0103
ENCODING 259
SWIDTH 560 0
DWIDTH 14 0
BBX 11 19 1 0
BITMAP
3040
30C0
1FC0
0F00
0000
0000
1F80
3FC0
21E0
00E0
00E0
1FE0
7FE0
F8E0
E0E0
E0E0
E1E0
7FE0
3CE0
ENDCHAR
STARTCHAR 0104
ENCODING 260
SWIDTH 720 0
DWIDTH 18 0
BBX 16 23 1 -5
BITMAP
03C0
03C0
07C0
07E0
0EE0
0E70
0E70
1E70
1C78
1C38
3FF8
3FFC
381C
701E
700E
F00E
E00F
E007
0006
000C
000C
000C
000F
ENDCHAR
STARTCHAR 0105
ENCODING 261
SWIDTH 560 0
DWIDTH 14 0
BBX 11 17 1 -4
BITMAP
1F80
3FC0
21E0
00E0
00E0
1FE0
7FE0
F8E0
E0E0
E0E0
E1E0
7FE0
3CE0
0180
0300
0300
01C0
ENDCHAR
STARTCHAR 0106
ENCODING 262
SWIDTH 640 0
DWIDTH 16 0
BBX 13 25 1 0
BITMAP
00E0
00E0
00E0
00E0
00C0
00C0
0000
07F0
1FF8
3C08
7800
7800
7000
7000
F000
F000
F000
F000
7000
7000
7800
7800
3C08
1FF8
07F8
ENDCHAR
STARTCHAR 0107
ENCODING 263
SWIDTH 520 0
DWIDTH 13 0
BBX 11 21 1 0
BITMAP
0380
0380
0380
0380
0300
0600
0000
0000
0FC0
3FC0
7800
7000
F000
E000
E000
E000
F000
F000
7840
7FE0
1FC0
ENDCHAR
STARTCHAR 010A
ENCODING 266
SWIDTH 640 0
DWIDTH 16 0
BBX 13 22 1 0
BITMAP
0180
03C0
0180
0000
07F0
1FF8
3C08
7800
7800
7000
7000
F000
F000
F000
F000
7000
7000
7800
7800
3C08
1FF8
07F8
ENDCHAR
STARTCHAR 010B
ENCODING 267
SWIDTH 520 0
DWIDTH 13 0
BBX 11 18 1 0
BITMAP
0600
0F00
0600
0000
0000
0FC0
3FC0
7800
7000
F000
E000
E000
E000
F000
F000
7840
7FE0
1FC0
ENDCHAR
STARTCHAR 010C
ENCODING 268
SWIDTH 640 0
DWIDTH 16 0
BBX 13 23 1 0
BITMAP
0630
07F0
03C0
0080
0000
07F0
1FF8
3C08
7800
7800
7000
7000
F000
F000
F000
F000
7000
7000
7800
7800
3C08
1FF8
07F8
ENDCHAR
STARTCHAR 010D
ENCODING 269
SWIDTH 520 0
DWIDTH 13 0
BBX 11 19 1 0
BITMAP
39C0
1F80
0F00
0600
0000
0000
0FC0
3FC0
7800
7000
F000
E000
E000
E000
F000
F000
7840
7FE0
1FC0
ENDCHAR
STARTCHAR 010E
ENCODING 270
SWIDTH 680 0
DWIDTH 17 0
BBX 14 23 2 0
BITMAP
18C0
1FC0
0F00
0200
0000
FF80
FFE0
F0F0
F078
F038
F03C
F03C
F01C
F01C
F01C
F01C
F03C
F03C
F038
F078
F0F0
FFE0
FF80
ENDCHAR
STARTCHAR 010F
ENCODING 271
SWIDTH 600 0
DWIDTH 15 0
BBX 18 21 1 0
BITMAP
0003C0
0003C0
0001C0
007180
007380
007300
007000
007000
0FF000
3FF000
787000
707000
F07000
E07000
E07000
E07000
F07000
F0F000
71F000
7F7000
1E7000
ENDCHAR
STARTCHAR 0110
ENCODING 272
SWIDTH 680 0
DWIDTH 17 0
BBX 14 22 2 0
BITMAP
1FC0
1FC0
0000
0000
FF80
FFE0
F0F0
F078
F038
F03C
F03C
F01C
F01C
F01C
F01C
F03C
F03C
F038
F078
F0F0
FFE0
FF80
ENDCHAR
STARTCHAR 0111
ENCODING 273
SWIDTH 600 0
DWIDTH 15 0
BBX 14 18 1 0
BITMAP
0070
01FC
01FC
0070
0070
0FF0
3FF0
7870
7070
F070
E070
E070
E070
F070
F0F0
71F0
7F70
1E70
ENDCHAR
STARTCHAR 0112
ENCODING 274
SWIDTH 600 0
DWIDTH 15 0
BBX 11 22 2 0
BITMAP
3F80
3F80
0000
0000
FFE0
FFE0
F000
F000
F000
F000
F000
FF80
FF80
F000
F000
F000
F000
F000
F000
F000
FFE0
FFE0
ENDCHAR
STARTCHAR 0113
ENCODING 275
SWIDTH 600 0
DWIDTH 15 0
BBX 12 17 1 0
BITMAP
1FC0
1FC0
0000
0000
0F80
3FE0
78F0
7070
F070
FFF0
FFF0
E000
F000
7000
7820
3FE0
1FC0
ENDCHAR
STARTCHAR 0116
ENCODING 278
SWIDTH 600 0
DWIDTH 15 0
BBX 11 22 2 0
BITMAP
0E00
0E00
0E00
0000
FFE0
FFE0
F000
F000
F000
F000
F000
FF80
FF80
F000
F000
F000
F000
F000
F000
F000
FFE0
FFE0
ENDCHAR
STARTCHAR 0117
ENCODING 279
SWIDTH 600 0
DWIDTH 15 0
BBX 12 18 1 0
BITMAP
0700
0700
0700
0000
0000
0F80
3FE0
78F0
7070
F070
FFF0
FFF0
E000
F000
7000
7820
3FE0
1FC0
ENDCHAR
STARTCHAR 0118
ENCODING 280
SWIDTH 600 0
DWIDTH 15 0
BBX 11 23 2 -5
BITMAP
FFE0
FFE0
F000
F000
F000
F000
F000
FF80
FF80
F000
F000
F000
F000
F000
F000
F000
FFE0
FFE0
0100
0300
0600
0600
03C0
ENDCHAR
STARTCHAR 0119
ENCODING 281
SWIDTH 600 0
DWIDTH 15 0
BBX 12 17 1 -4
BITMAP
0F80
3FE0
78F0
7070
F070
FFF0
FFF0
E000
F000
7000
7820
3FE0
1FC0
0180
0300
0300
01C0
ENDCHAR
STARTCHAR 011A
ENCODING 282
SWIDTH 600 0
DWIDTH 15 0
BBX 11 23 2 0
BITMAP
3180
3F80
0F00
0400
0000
FFE0
FFE0
F000
F000
F000
F000
F000
FF80
FF80
F000
F000
F000
F000
F000
F000
F000
FFE0
FFE0
ENDCHAR
STARTCHAR 011B
ENCODING 283
SWIDTH 600 0
DWIDTH 15 0
BBX 12 19 1 0
BITMAP
18C0
1FC0
0F00
0200
0000
0000
0F80
3FE0
78F0
7070
F070
FFF0
FFF0
E000
F000
7000
7820
3FE0
1FC0
ENDCHAR
STARTCHAR 011E
ENCODING 286
SWIDTH 720 0
DWIDTH 18 0
BBX 15 24 1 0
BITMAP
0C10
0430
07F0
03E0
0000
0000
07F0
1FFC
3C0C
7800
7800
7000
7000
F000
F000
F07E
F07E
700E
700E
780E
780E
3C0E
1FFE
07F8
ENDCHAR
STARTCHAR 011F
ENCODING 287
SWIDTH 600 0
DWIDTH 15 0
BBX 13 24 1 -5
BITMAP
20C0
3080
3F80
1F00
0000
0000
1FF8
7FF8
71E0
F0E0
E0E0
F0E0
71E0
7FC0
3F80
7000
7000
7FC0
3FF0
0070
0070
60F0
7FE0
3F80
ENDCHAR
STARTCHAR 0120
ENCODING 288
SWIDTH 720 0
DWIDTH 18 0
BBX 15 22 1 0
BITMAP
01C0
01C0
01C0
0000
07F0
1FFC
3C0C
7800
7800
7000
7000
F000
F000
F07E
F07E
700E
700E
780E
780E
3C0E
1FFE
07F8
ENDCHAR
STARTCHAR 0121
ENCODING 289
SWIDTH 600 0
DWIDTH 15 0
BBX 13 23 1 -5
BITMAP
0E00
0E00
0E00
0000
0000
1FF8
7FF8
71E0
F0E0
E0E0
F0E0
71E0
7FC0
3F80
7000
7000
7FC0
3FF0
0070
0070
60F0
7FE0
3F80
ENDCHAR
STARTCHAR 0122
ENCODING 290
SWIDTH 720 0
DWIDTH 18 0
BBX 15 26 1 -8
BITMAP
07F0
1FFC
3C0C
7800
7800
7000
7000
F000
F000
F07E
F07E
700E
700E
780E
780E
3C0E
1FFE
07F8
0000
0000
00C0
00E0
00E0
00C0
01C0
0180
ENDCHAR
STARTCHAR 0123
ENCODING 291
SWIDTH 600 0
DWIDTH 15 0
BBX 13 26 1 -5
BITMAP
0300
0700
0600
0E00
0E00
0E00
0000
0000
1FF8
7FF8
71E0
F0E0
E0E0
F0E0
71E0
7FC0
3F80
7000
7000
7FC0
3FF0
0070
0070
60F0
7FE0
3F80
ENDCHAR
STARTCHAR 0126
ENCODING 294
SWIDTH 840 0
DWIDTH 21 0
BBX 19 18 1 0
BITMAP
3C0380
3C0380
3C0380
FFFFE0
FFFFE0
3C0380
3C0380
3FFF80
3FFF80
3C0380
3C0380
3C0380
3C0380
3C0380
3C0380
3C0380
3C0380
3C0380
ENDCHAR
STARTCHAR 0127
ENCODING 295
SWIDTH 600 0
DWIDTH 15 0
BBX 14 18 0 0
BITMAP
3800
3800
FF00
FF00
3800
38F0
3BF8
3E38
3C3C
3C3C
383C
383C
383C
383C
383C
383C
383C
383C
ENDCHAR
STARTCHAR 012A
ENCODING 298
SWIDTH 320 0
DWIDTH 8 0
BBX 7 22 1 0
BITMAP
FE
FE
00
00
78
78
78
78
78
78
78
78
78
78
78
78
78
78
78
78
78
78
ENDCHAR
STARTCHAR 012B
ENCODING 299
SWIDTH 320 0
DWIDTH 8 0
BBX 8 17 0 0
BITMAP
FF
FF
00
00
3C
3C
3C
3C
3C
3C
3C
3C
3C
3C
3C
3C
3C
ENDCHAR
STARTCHAR 012E
ENCODING 302
SWIDTH 320 0
DWIDTH 8 0
BBX 4 23 2 -5
BITMAP
F0
F0
F0
F0
F0
F0
F0
F0
F0
F0
F0
F0
F0
F0
F0
F0
F0
F0
60
C0
C0
C0
70
ENDCHAR
STARTCHAR 012F
ENCODING 303
SWIDTH 320 0
DWIDTH 8 0
BBX 5 24 1 -5
BITMAP
30
78
30
00
00
00
78
78
78
78
78
78
78
78
78
78
78
78
78
20
40
C0
C0
78
ENDCHAR
STARTCHAR 0130
ENCODING 304
SWIDTH 320 0
DWIDTH 8 0
BBX 4 22 2 0
BITMAP
60
F0
60
00
F0
F0
F0
F0
F0
F0
F0
F0
F0
F0
F0
F0
F0
F0
F0
F0
F0
F0
ENDCHAR
STARTCHAR 0131
ENCODING 305
SWIDTH 320 0
DWIDTH 8 0
BBX 4 13 2 0
BITMAP
F0
F0
F0
F0
F0
F0
F0
F0
F0
F0
F0
F0
F0
ENDCHAR
STARTCHAR 0132
ENCODING 306
SWIDTH 600 0
DWIDTH 15 0
BBX 11 21 2 -3
BITMAP
E0E0
E0E0
E0E0
E0E0
E0E0
E0E0
E0E0
E0E0
E0E0
E0E0
E0E0
E0E0
E0E0
E0E0
E0E0
E1E0
E1E0
E1C0
03C0
0380
0100
ENDCHAR
STARTCHAR 0133
ENCODING 307
SWIDTH 560 0
DWIDTH 14 0
BBX 11 24 1 -5
BITMAP
70E0
F1E0
F1E0
70E0
0000
0000
70E0
70E0
70E0
70E0
70E0
70E0
70E0
70E0
70E0
70E0
70E0
70E0
70E0
01E0
01C0
01C0
0380
0100
ENDCHAR
STARTCHAR 0136
ENCODING 310
SWIDTH 640 0
DWIDTH 16 0
BBX 13 26 2 -8
BITMAP
F020
F070
F0F0
F1E0
F3C0
F780
F700
FE00
FC00
FE00
FF00
FF80
F780
F3C0
F1E0
F1F0
F0F0
F078
0000
0000
0700
0700
0700
0600
0E00
0C00
ENDCHAR
STARTCHAR 0137
ENCODING 311
SWIDTH 560 0
DWIDTH 14 0
BBX 11 26 2 -8
BITMAP
E000
E000
E000
E000
E000
E080
E1C0
E3C0
E780
EF00
FC00
FC00
FE00
EF00
E780
E3C0
E3C0
E1E0
0000
0000
0E00
0E00
0E00
0E00
0C00
1C00
ENDCHAR
STARTCHAR 0139
ENCODING 313
SWIDTH 560 0
DWIDTH 14 0
BBX 11 25 2 0
BITMAP
3800
3800
3800
3800
3000
6000
0000
F000
F000
F000
F000
F000
F000
F000
F000
F000
F000
F000
F000
F000
F000
F000
F000
FFE0
FFE0
ENDCHAR
STARTCHAR 013A
ENCODING 314
SWIDTH 240 0
DWIDTH 6 0
BBX 5 25 1 0
BITMAP
38
38
38
38
30
60
00
F0
F0
F0
F0
F0
F0
F0
F0
F0
F0
F0
F0
F0
F0
F0
F0
F0
60
ENDCHAR
STARTCHAR 013B
ENCODING 315
SWIDTH 560 0
DWIDTH 14 0
BBX 11 26 2 -8
BITMAP
F000
F000
F000
F000
F000
F000
F000
F000
F000
F000
F000
F000
F000
F000
F000
F000
FFE0
FFE0
0000
0000
0E00
0F00
0E00
0E00
0C00
0C00
ENDCHAR
STARTCHAR 013C
ENCODING 316
SWIDTH 240 0
DWIDTH 6 0
BBX 4 26 1 -8
BITMAP
F0
F0
F0
F0
F0
F0
F0
F0
F0
F0
F0
F0
F0
F0
F0
F0
F0
60
00
00
E0
F0
70
60
E0
C0
ENDCHAR
STARTCHAR 013D
ENCODING 317
SWIDTH 560 0
DWIDTH 14 0
BBX 11 21 2 0
BITMAP
00E0
00E0
00E0
F0E0
F1C0
F180
F000
F000
F000
F000
F000
F000
F000
F000
F000
F000
F000
F000
F000
FFE0
FFE0
ENDCHAR
STARTCHAR 013E
ENCODING 318
SWIDTH 240 0
DWIDTH 6 0
BBX 10 20 1 0
BITMAP
0180
03C0
F3C0
F1C0
F380
F300
F000
F000
F000
F000
F000
F000
F000
F000
F000
F000
F000
F000
F000
6000
ENDCHAR
STARTCHAR 013F
ENCODING 319
SWIDTH 520 0
DWIDTH 13 0
BBX 10 18 2 0
BITMAP
E000
E000
E000
E000
E000
E000
E000
E300
E380
E380
E000
E000
E000
E000
E000
E000
FFC0
FFC0
ENDCHAR
STARTCHAR 0140
ENCODING 320
SWIDTH 240 0
DWIDTH 6 0
BBX 9 18 1 0
BITMAP
F000
F000
F000
F000
F000
F000
F000
F300
F780
F300
F000
F000
F000
F000
F000
F000
F000
6000
ENDCHAR
STARTCHAR 0141
ENCODING 321
SWIDTH 560 0
DWIDTH 14 0
BBX 13 18 0 0
BITMAP
1C00
1C00
1C00
1C00
1CC0
1FC0
1FC0
1F80
7E00
FC00
FC00
DC00
1C00
1C00
1C00
1C00
1FF8
1FF8
ENDCHAR
STARTCHAR 0142
ENCODING 322
SWIDTH 320 0
DWIDTH 8 0
BBX 8 18 0 0
BITMAP
3C
3C
3C
3C
3C
3F
3F
3F
7E
FC
FC
BC
3C
3C
3C
3C
3C
3C
ENDCHAR
STARTCHAR 0143
ENCODING 323
SWIDTH 760 0
DWIDTH 19 0
BBX 15 25 2 0
BITMAP
00C0
01E0
00E0
00C0
01C0
0180
0000
F00E
F80E
F80E
FC0E
FE0E
FE0E
F70E
F70E
F38E
F38E
F1CE
F0EE
F0EE
F07E
F07E
F03E
F03E
F01E
ENDCHAR
STARTCHAR 0144
ENCODING 324
SWIDTH 600 0
DWIDTH 15 0
BBX 12 21 2 0
BITMAP
0300
0780
0380
0300
0700
0600
0000
0000
E3C0
EFE0
F8E0
F0F0
F0F0
E0F0
E0F0
E0F0
E0F0
E0F0
E0F0
E0F0
E0F0
ENDCHAR
STARTCHAR 0145
ENCODING 325
SWIDTH 760 0
DWIDTH 19 0
BBX 15 26 2 -8
BITMAP
F00E
F80E
F80E
FC0E
FE0E
FE0E
F70E
F70E
F38E
F38E
F1CE
F0EE
F0EE
F07E
F07E
F03E
F03E
F01E
0000
0000
0380
03C0
01C0
0380
0300
0300
ENDCHAR
STARTCHAR 0146
ENCODING 326
SWIDTH 600 0
DWIDTH 15 0
BBX 12 21 2 -8
BITMAP
E3C0
EFE0
F8E0
F0F0
F0F0
E0F0
E0F0
E0F0
E0F0
E0F0
E0F0
E0F0
E0F0
0000
0000
0600
0700
0700
0600
0E00
0C00
ENDCHAR
STARTCHAR 0147
ENCODING 327
SWIDTH 760 0
DWIDTH 19 0
BBX 15 23 2 0
BITMAP
0C60
0FE0
03C0
0100
0000
F00E
F80E
F80E
FC0E
FE0E
FE0E
F70E
F70E
F38E
F38E
F1CE
F0EE
F0EE
F07E
F07E
F03E
F03E
F01E
ENDCHAR
STARTCHAR 0148
ENCODING 328
SWIDTH 600 0
DWIDTH 15 0
BBX 12 19 2 0
BITMAP
3180
3F80
0F00
0400
0000
0000
E3C0
EFE0
F8E0
F0F0
F0F0
E0F0
E0F0
E0F0
E0F0
E0F0
E0F0
E0F0
E0F0
ENDCHAR
STARTCHAR 014A
ENCODING 330
SWIDTH 760 0
DWIDTH 19 0
BBX 15 24 2 -6
BITMAP
F00E
F80E
F80E
FC0E
FE0E
FE0E
F70E
F30E
F38E
F1CE
F1CE
F0EE
F06E
F07E
F03E
F03E
F01E
F01E
000E
001E
001E
003C
0078
0030
ENDCHAR
STARTCHAR 014B
ENCODING 331
SWIDTH 640 0
DWIDTH 16 0
BBX 12 18 2 -5
BITMAP
E3C0
EFE0
F8E0
F0F0
F0F0
E0F0
E0F0
E0F0
E0F0
E0F0
E0F0
E0F0
E0F0
00F0
00E0
01E0
03C0
0080
ENDCHAR
STARTCHAR 014C
ENCODING 332
SWIDTH 760 0
DWIDTH 19 0
BBX 16 22 1 0
BITMAP
07F0
07F0
0000
0000
07F0
1FFC
3C1E
380E
780F
7007
7007
7007
F007
F007
7007
7007
7007
780F
380E
3C1E
1FFC
07F0
ENDCHAR
STARTCHAR 014D
ENCODING 333
SWIDTH 600 0
DWIDTH 15 0
BBX 13 17 1 0
BITMAP
1FC0
1FC0
0000
0000
0F80
3FE0
78F0
7070
F070
F078
F078
F078
F070
7070
78F0
3FE0
0F80
ENDCHAR
STARTCHAR 0150
ENCODING 336
SWIDTH 760 0
DWIDTH 19 0
BBX 16 25 1 0
BITMAP
039C
039C
039C
039C
0318
0730
0000
07F0
1FFC
3C1E
380E
780F
7007
7007
7007
F007
F007
7007
7007
7007
780F
380E
3C1E
1FFC
07F0
ENDCHAR
STARTCHAR 0151
ENCODING 337
SWIDTH 600 0
DWIDTH 15 0
BBX 13 21 1 0
BITMAP
0E70
0E70
0E70
0E70
0C60
1CC0
0000
0000
0F80
3FE0
78F0
7070
F070
F078
F078
F078
F070
7070
78F0
3FE0
0F80
ENDCHAR
STARTCHAR 0152
ENCODING 338
SWIDTH 1040 0
DWIDTH 26 0
BBX 22 18 1 0
BITMAP
07EFFC
1FFFFC
3C1E00
380E00
780E00
700E00
700E00
700FF0
F00FF0
F00E00
700E00
700E00
700E00
780E00
380E00
3C1E00
1FFFFC
07EFFC
ENDCHAR
STARTCHAR 0153
ENCODING 339
SWIDTH 960 0
DWIDTH 24 0
BBX 22 13 1 0
BITMAP
0F87C0
3FFFF0
78FC78
707838
F07838
F07FFC
F07FFC
F07800
F07800
707800
78FC10
3FDFF0
0F87F0
ENDCHAR
STARTCHAR 0154
ENCODING 340
SWIDTH 640 0
DWIDTH 16 0
BBX 13 25 2 0
BITMAP
0380
0380
0380
0300
0700
0600
0000
FF80
FFE0
F0F0
F0F0
F070
F070
F0F0
F0E0
FFE0
FF80
F700
F380
F3C0
F1E0
F0E0
F0F0
F078
F078
ENDCHAR
STARTCHAR 0155
ENCODING 341
SWIDTH 480 0
DWIDTH 12 0
BBX 9 21 2 0
BITMAP
0E00
0E00
0E00
0E00
0C00
1800
0000
0000
6380
EF80
FF00
F800
F000
F000
F000
F000
F000
F000
F000
F000
F000
ENDCHAR
STARTCHAR 0156
ENCODING 342
SWIDTH 640 0
DWIDTH 16 0
BBX 13 26 2 -8
BITMAP
FF80
FFE0
F0F0
F0F0
F070
F070
F0F0
F0E0
FFE0
FF80
F700
F380
F3C0
F1E0
F0E0
F0F0
F078
F078
0000
0000
0700
0700
0700
0700
0600
0E00
ENDCHAR
STARTCHAR 0157
ENCODING 343
SWIDTH 480 0
DWIDTH 12 0
BBX 9 21 2 -8
BITMAP
6380
EF80
FF00
F800
F000
F000
F000
F000
F000
F000
F000
F000
F000
0000
0000
6000
7000
7000
6000
E000
C000
ENDCHAR
STARTCHAR 0158
ENCODING 344
SWIDTH 640 0
DWIDTH 16 0
BBX 13 23 2 0
BITMAP
3180
3F80
0F00
0600
0000
FF80
FFE0
F0F0
F0F0
F070
F070
F0F0
F0E0
FFE0
FF80
F700
F380
F3C0
F1E0
F0E0
F0F0
F078
F078
ENDCHAR
STARTCHAR 0159
ENCODING 345
SWIDTH 480 0
DWIDTH 12 0
BBX 9 19 2 0
BITMAP
E700
7E00
3C00
1800
0000
0000
6380
EF80
FF00
F800
F000
F000
F000
F000
F000
F000
F000
F000
F000
ENDCHAR
STARTCHAR 015A
ENCODING 346
SWIDTH 640 0
DWIDTH 16 0
BBX 13 25 1 0
BITMAP
0180
01C0
01C0
0180
0380
0300
0000
0FC0
3FF0
7820
F000
F000
F000
7800
7F80
3FE0
0FF0
00F8
0078
0038
0038
0078
40F8
FFF0
3FC0
ENDCHAR
STARTCHAR 015B
ENCODING 347
SWIDTH 520 0
DWIDTH 13 0
BBX 11 21 1 0
BITMAP
0700
0780
0380
0300
0700
0600
0000
0000
3F80
7F80
F000
F000
7800
7F00
1FC0
03C0
01E0
01E0
41C0
FFC0
3F00
ENDCHAR
STARTCHAR 015E
ENCODING 350
SWIDTH 640 0
DWIDTH 16 0
BBX 13 23 1 -5
BITMAP
0FC0
3FF0
7820
F000
F000
F000
7800
7F00
1FC0
07F0
00F8
0078
0038
0038
0078
40F8
FFF0
3FC0
0200
0700
0300
0300
0F00
ENDCHAR
STARTCHAR 015F
ENCODING 351
SWIDTH 520 0
DWIDTH 13 0
BBX 11 18 1 -5
BITMAP
3F80
7F80
F000
F000
7800
7F00
1FC0
03C0
01E0
01E0
41C0
FFC0
7F00
0C00
1C00
0600
0600
3C00
ENDCHAR
STARTCHAR 0160
ENCODING 352
SWIDTH 640 0
DWIDTH 16 0
BBX 13 23 1 0
BITMAP
18C0
1FC0
0780
0200
0000
0FC0
3FF0
7820
F000
F000
F000
7800
7F80
3FE0
0FF0
00F8
0078
0038
0038
0078
40F8
FFF0
3FC0
ENDCHAR
STARTCHAR 0161
ENCODING 353
SWIDTH 520 0
DWIDTH 13 0
BBX 11 19 1 0
BITMAP
3180
3F80
0F00
0400
0000
0000
3F80
7F80
F000
F000
7800
7F00
1FC0
03C0
01E0
01E0
41C0
FFC0
3F00
ENDCHAR
STARTCHAR 0162
ENCODING 354
SWIDTH 640 0
DWIDTH 16 0
BBX 14 23 1 -5
BITMAP
FFFC
FFFC
0780
0780
0780
0780
0780
0780
0780
0780
0780
0780
0780
0780
0780
0780
0780
0780
0200
0600
0300
0300
1F00
ENDCHAR
STARTCHAR 0163
ENCODING 355
SWIDTH 480 0
DWIDTH 12 0
BBX 10 21 1 -5
BITMAP
3800
3800
3800
FFC0
FFC0
3800
3800
3800
3800
3800
3800
3800
3800
3C00
1F80
1FC0
0400
0E00
0600
0200
1E00
ENDCHAR
STARTCHAR 0164
ENCODING 356
SWIDTH 640 0
DWIDTH 16 0
BBX 14 23 1 0
BITMAP
18E0
0FC0
0780
0300
0000
FFFC
FFFC
0780
0780
0780
0780
0780
0780
0780
0780
0780
0780
0780
0780
0780
0780
0780
0780
ENDCHAR
STARTCHAR 0165
ENCODING 357
SWIDTH 480 0
DWIDTH 12 0
BBX 16 21 1 0
BITMAP
000E
000F
000E
000E
000C
3818
3800
3800
FFC0
FFC0
3800
3800
3800
3800
3800
3800
3800
3800
3C00
1F80
1F80
ENDCHAR
STARTCHAR 0166
ENCODING 358
SWIDTH 640 0
DWIDTH 16 0
BBX 14 22 1 0
BITMAP
1FE0
1FE0
0000
0000
FFFC
FFFC
0780
0780
0780
0780
0780
0780
0780
0780
0780
0780
0780
0780
0780
0780
0780
0780
ENDCHAR
STARTCHAR 0167
ENCODING 359
SWIDTH 480 0
DWIDTH 12 0
BBX 10 16 1 0
BITMAP
3800
3800
3800
FFC0
FFC0
3800
3800
FF00
FF00
3800
3800
3800
3C00
3C00
1F80
1F80
ENDCHAR
STARTCHAR 016A
ENCODING 362
SWIDTH 760 0
DWIDTH 19 0
BBX 15 22 2 0
BITMAP
0FE0
0FE0
0000
0000
F01E
F01E
F01E
F01E
F01E
F01E
F01E
F01E
F01E
F01E
F01E
F01E
F01C
F01C
703C
7878
3FF0
0FE0
ENDCHAR
STARTCHAR 016B
ENCODING 363
SWIDTH 600 0
DWIDTH 15 0
BBX 12 17 2 0
BITMAP
3F80
3F80
0000
0000
E0E0
E0E0
E0E0
E0E0
E0E0
E0E0
E0E0
E0E0
E0E0
E1E0
F3E0
7EF0
3CE0
ENDCHAR
STARTCHAR 016E
ENCODING 366
SWIDTH 760 0
DWIDTH 19 0
BBX 15 23 2 0
BITMAP
0380
06C0
04C0
0380
0000
F01E
F01E
F01E
F01E
F01E
F01E
F01E
F01E
F01E
F01E
F01E
F01E
F01C
F01C
703C
7878
3FF0
0FE0
ENDCHAR
STARTCHAR 016F
ENCODING 367
SWIDTH 600 0
DWIDTH 15 0
BBX 12 19 2 0
BITMAP
0E00
1B00
1B00
0E00
0000
0000
E0E0
E0E0
E0E0
E0E0
E0E0
E0E0
E0E0
E0E0
E0E0
E1E0
F3E0
7EF0
3CE0
ENDCHAR
STARTCHAR 0170
ENCODING 368
SWIDTH 760 0
DWIDTH 19 0
BBX 15 25 2 0
BITMAP
0738
0738
0738
0738
0630
0C60
0000
F01E
F01E
F01E
F01E
F01E
F01E
F01E
F01E
F01E
F01E
F01E
F01E
F01C
F01C
703C
7878
3FF0
0FE0
ENDCHAR
STARTCHAR 0171
ENCODING 369
SWIDTH 600 0
DWIDTH 15 0
BBX 12 21 2 0
BITMAP
1CE0
1EE0
0CE0
1CE0
18C0
18C0
0000
0000
E0E0
E0E0
E0E0
E0E0
E0E0
E0E0
E0E0
E0E0
E0E0
E1E0
F3E0
7EF0
3CE0
ENDCHAR
STARTCHAR 0172
ENCODING 370
SWIDTH 760 0
DWIDTH 19 0
BBX 15 22 2 -4
BITMAP
F01E
F01E
F01E
F01E
F01E
F01E
F01E
F01E
F01E
F01E
F01E
F01E
F01C
F01C
703C
7878
3FF0
0FE0
0600
0600
0400
0780
ENDCHAR
STARTCHAR 0173
ENCODING 371
SWIDTH 600 0
DWIDTH 15 0
BBX 12 17 2 -4
BITMAP
E0E0
E0E0
E0E0
E0E0
E0E0
E0E0
E0E0
E0E0
E0E0
E1E0
F3E0
7EF0
3CF0
00C0
0180
0180
01E0
ENDCHAR
STARTCHAR 0174
ENCODING 372
SWIDTH 920 0
DWIDTH 23 0
BBX 21 23 1 0
BITMAP
002000
00F000
01FC00
018C00
000000
E0F078
E0F878
E0F878
F1F878
F1DC70
F1DC70
71DC70
739C70
738E70
738E70
738EF0
7707F0
7F07F0
7F07E0
7E07E0
3E03E0
3E03E0
3E03E0
ENDCHAR
STARTCHAR 0175
ENCODING 373
SWIDTH 760 0
DWIDTH 19 0
BBX 17 19 1 0
BITMAP
010000
03C000
0FE000
0C6000
000000
000000
E1C380
E1C780
E1C380
F1E380
70E380
70E380
71E380
79F300
3BF700
3B7700
3F7E00
3E7C00
1E3C00
ENDCHAR
STARTCHAR 0176
ENCODING 374
SWIDTH 680 0
DWIDTH 17 0
BBX 15 23 1 0
BITMAP
0100
07C0
0FE0
0C60
0000
F01E
701E
783C
383C
3C78
1C78
1EF0
0EF0
0FE0
07E0
07C0
03C0
0380
0380
0380
0380
0380
0380
ENDCHAR
STARTCHAR 0177
ENCODING 375
SWIDTH 640 0
DWIDTH 16 0
BBX 12 24 2 -5
BITMAP
0400
0F00
3F80
3180
0000
0000
E0F0
E0F0
E0F0
E0F0
E0F0
E0F0
E0F0
E0F0
E0F0
E1F0
F3F0
7EF0
3CF0
00F0
00E0
21E0
7FC0
3F00
ENDCHAR
STARTCHAR 0178
ENCODING 376
SWIDTH 680 0
DWIDTH 17 0
BBX 15 22 1 0
BITMAP
1C70
1C70
1C70
0000
F01E
701E
783C
383C
3C78
1C78
1EF0
0EF0
0FE0
07E0
07C0
03C0
0380
0380
0380
0380
0380
0380
ENDCHAR
STARTCHAR 0179
ENCODING 377
SWIDTH 640 0
DWIDTH 16 0
BBX 12 25 2 0
BITMAP
0380
0380
0380
0380
0300
0600
0000
FFF0
FFF0
00E0
01E0
03C0
03C0
0780
0700
0F00
0E00
1E00
1C00
3C00
3800
7800
7000
FFF0
FFF0
ENDCHAR
STARTCHAR 017A
ENCODING 378
SWIDTH 520 0
DWIDTH 13 0
BBX 11 21 1 0
BITMAP
0380
0380
0380
0380
0300
0600
0000
0000
7FE0
FFC0
03C0
0380
0780
0F00
0E00
1E00
3C00
3C00
7800
7FE0
7FE0
ENDCHAR
STARTCHAR 017B
ENCODING 379
SWIDTH 640 0
DWIDTH 16 0
BBX 12 22 2 0
BITMAP
0600
0F00
0600
0000
FFF0
FFF0
00E0
01E0
03C0
03C0
0780
0700
0F00
0E00
1E00
1C00
3C00
3800
7800
7000
FFF0
FFF0
ENDCHAR
STARTCHAR 017C
ENCODING 380
SWIDTH 520 0
DWIDTH 13 0
BBX 11 18 1 0
BITMAP
0600
0F00
0600
0000
0000
7FE0
FFC0
03C0
0380
0780
0F00
0E00
1E00
3C00
3C00
7800
7FE0
7FE0
ENDCHAR
STARTCHAR 017D
ENCODING 381
SWIDTH 640 0
DWIDTH 16 0
BBX 12 23 2 0
BITMAP
31C0
1F80
0F00
0600
0000
FFF0
FFF0
00E0
01E0
03C0
03C0
0780
0700
0F00
0E00
1E00
1C00
3C00
3800
7800
7000
FFF0
FFF0
ENDCHAR
STARTCHAR 017E
ENCODING 382
SWIDTH 520 0
DWIDTH 13 0
BBX 11 19 1 0
BITMAP
31C0
1F80
0F00
0600
0000
0000
7FE0
FFC0
03C0
0380
0780
0F00
0E00
1E00
3C00
3C00
7800
7FE0
7FE0
ENDCHAR
STARTCHAR 0218
ENCODING 536
SWIDTH 640 0
DWIDTH 16 0
BBX 13 26 1 -8
BITMAP
0FC0
3FF0
7820
F000
F000
F000
7800
7F80
3FE0
0FF0
00F8
0078
0038
0038
0078
40F8
FFF0
3FC0
0000
0000
0700
0780
0380
0300
0700
0600
ENDCHAR
STARTCHAR 0219
ENCODING 537
SWIDTH 520 0
DWIDTH 13 0
BBX 11 21 1 -8
BITMAP
3F80
7F80
F000
F000
7800
7F00
1FC0
03C0
01E0
01E0
41C0
FFC0
3F00
0000
0000
0E00
0E00
0E00
0E00
0C00
1800
ENDCHAR
STARTCHAR 021A
ENCODING 538
SWIDTH 640 0
DWIDTH 16 0
BBX 14 26 1 -8
BITMAP
FFFC
FFFC
0780
0780
0780
0780
0780
0780
0780
0780
0780
0780
0780
0780
0780
0780
0780
0780
0000
0000
0700
0780
0380
0700
0600
0600
ENDCHAR
STARTCHAR 021B
ENCODING 539
SWIDTH 480 0
DWIDTH 12 0
BBX 10 24 1 -8
BITMAP
3800
3800
3800
FFC0
FFC0
3800
3800
3800
3800
3800
3800
3800
3800
3C00
1F80
1F80
0000
0000
0700
0700
0700
0600
0E00
0C00
ENDCHAR
STARTCHAR 02C6
ENCODING 710
SWIDTH 400 0
DWIDTH 10 0
BBX 8 4 1 15
BITMAP
18
3C
7E
E3
ENDCHAR
STARTCHAR 02C7
ENCODING 711
SWIDTH 400 0
DWIDTH 10 0
BBX 8 4 1 15
BITMAP
E3
7E
3C
18
ENDCHAR
STARTCHAR 02D8
ENCODING 728
SWIDTH 360 0
DWIDTH 9 0
BBX 8 4 0 15
BITMAP
C1
63
7F
3E
ENDCHAR
STARTCHAR 02D9
ENCODING 729
SWIDTH 280 0
DWIDTH 7 0
BBX 3 3 2 14
BITMAP
E0
E0
E0
ENDCHAR
STARTCHAR 02DA
ENCODING 730
SWIDTH 360 0
DWIDTH 9 0
BBX 5 4 2 15
BITMAP
70
98
98
70
ENDCHAR
STARTCHAR 02DB
ENCODING 731
SWIDTH 280 0
DWIDTH 7 0
BBX 4 5 2 -5
BITMAP
60
C0
C0
C0
F0
ENDCHAR
STARTCHAR 02DC
ENCODING 732
SWIDTH 440 0
DWIDTH 11 0
BBX 8 3 1 14
BITMAP
71
7F
CE
ENDCHAR
STARTCHAR 02DD
ENCODING 733
SWIDTH 440 0
DWIDTH 11 0
BBX 9 6 2 15
BITMAP
6700
7780
7380
6300
E700
C600
ENDCHAR
STARTCHAR 05B0
ENCODING 1456
SWIDTH 0 0
DWIDTH 0 0
BBX 2 5 4 -7
BITMAP
40
C0
00
40
40
ENDCHAR
STARTCHAR 05B1
ENCODING 1457
SWIDTH 0 0
DWIDTH 0 0
BBX 9 5 1 -7
BITMAP
C980
D980
0000
2180
2180
ENDCHAR
STARTCHAR 05B2
ENCODING 1458
SWIDTH 0 0
DWIDTH 0 0
BBX 9 5 1 -7
BITMAP
FD80
FD80
0000
0180
0180
ENDCHAR
STARTCHAR 05B3
ENCODING 1459
SWIDTH 0 0
DWIDTH 0 0
BBX 9 5 1 -7
BITMAP
FD80
FD80
3000
3180
3180
ENDCHAR
STARTCHAR 05B4
ENCODING 1460
SWIDTH 0 0
DWIDTH 0 0
BBX 1 2 5 -4
BITMAP
80
80
ENDCHAR
STARTCHAR 05B5
ENCODING 1461
SWIDTH 0 0
DWIDTH 0 0
BBX 5 2 3 -4
BITMAP
98
98
ENDCHAR
STARTCHAR 05B6
ENCODING 1462
SWIDTH 0 0
DWIDTH 0 0
BBX 5 5 3 -7
BITMAP
98
98
00
60
60
ENDCHAR
STARTCHAR 05B7
ENCODING 1463
SWIDTH 0 0
DWIDTH 0 0
BBX 6 2 2 -4
BITMAP
FC
FC
ENDCHAR
STARTCHAR 05B8
ENCODING 1464
SWIDTH 0 0
DWIDTH 0 0
BBX 6 5 2 -7
BITMAP
FC
FC
10
30
30
ENDCHAR
STARTCHAR 05B9
ENCODING 1465
SWIDTH 0 0
DWIDTH 0 0
BBX 2 2 3 15
BITMAP
C0
C0
ENDCHAR
STARTCHAR 05BA
ENCODING 1466
SWIDTH 0 0
DWIDTH 0 0
BBX 2 2 3 15
BITMAP
C0
C0
ENDCHAR
STARTCHAR 05BB
ENCODING 1467
SWIDTH 0 0
DWIDTH 0 0
BBX 5 6 5 -8
BITMAP
80
80
20
20
08
08
ENDCHAR
STARTCHAR 05BC
ENCODING 1468
SWIDTH 0 0
DWIDTH 0 0
BBX 2 2 3 6
BITMAP
80
C0
ENDCHAR
STARTCHAR 05BE
ENCODING 1470
SWIDTH 400 0
DWIDTH 10 0
BBX 8 2 1 11
BITMAP
FF
FF
ENDCHAR
STARTCHAR 05C0
ENCODING 1472
SWIDTH 320 0
DWIDTH 8 0
BBX 3 21 3 -2
BITMAP
E0
E0
E0
E0
E0
E0
E0
E0
E0
E0
E0
E0
E0
E0
E0
E0
E0
E0
E0
E0
E0
ENDCHAR
STARTCHAR 05C1
ENCODING 1473
SWIDTH 0 0
DWIDTH 0 0
BBX 2 2 3 15
BITMAP
C0
C0
ENDCHAR
STARTCHAR 05C2
ENCODING 1474
SWIDTH 0 0
DWIDTH 0 0
BBX 2 2 3 15
BITMAP
C0
C0
ENDCHAR
STARTCHAR 05C3
ENCODING 1475
SWIDTH 320 0
DWIDTH 8 0
BBX 4 11 2 0
BITMAP
60
F0
F0
60
00
00
00
00
70
F0
70
ENDCHAR
STARTCHAR 05C7
ENCODING 1479
SWIDTH 0 0
DWIDTH 0 0
BBX 6 5 2 -7
BITMAP
FC
FC
10
30
30
ENDCHAR
STARTCHAR 05D0
ENCODING 1488
SWIDTH 600 0
DWIDTH 15 0
BBX 12 13 2 -1
BITMAP
61E0
E1F0
F070
7070
78F0
7CE0
FFE0
EFC0
E780
E3C0
E1E0
E0F0
E060
ENDCHAR
STARTCHAR 05D1
ENCODING 1489
SWIDTH 560 0
DWIDTH 14 0
BBX 13 13 1 1
BITMAP
7F00
7FC0
01C0
01C0
01C0
01C0
01C0
01C0
01C0
01C0
01C0
FFF8
FFF8
ENDCHAR
STARTCHAR 05D2
ENCODING 1490
SWIDTH 440 0
DWIDTH 11 0
BBX 9 13 1 0
BITMAP
3F00
3F00
0700
0700
0700
0700
0700
0F00
1F00
1F80
7B80
F380
C380
ENDCHAR
STARTCHAR 05D3
ENCODING 1491
SWIDTH 560 0
DWIDTH 14 0
BBX 12 13 1 1
BITMAP
7FF0
FFF0
03C0
03C0
03C0
03C0
03C0
03C0
03C0
03C0
03C0
03C0
03C0
ENDCHAR
STARTCHAR 05D4
ENCODING 1492
SWIDTH 600 0
DWIDTH 15 0
BBX 11 13 2 1
BITMAP
FF80
FFC0
01E0
00E0
00E0
C0E0
E0E0
E0E0
E0E0
E0E0
E0E0
E0E0
E0E0
ENDCHAR
STARTCHAR 05D5
ENCODING 1493
SWIDTH 360 0
DWIDTH 9 0
BBX 5 13 2 0
BITMAP
F8
F8
38
38
38
38
38
38
38
38
38
38
38
ENDCHAR
STARTCHAR 05D6
ENCODING 1494
SWIDTH 440 0
DWIDTH 11 0
BBX 9 13 1 1
BITMAP
FF80
FF80
1C00
1E00
1E00
0E00
0E00
0E00
0E00
0E00
0F00
0F00
0700
ENDCHAR
STARTCHAR 05D7
ENCODING 1495
SWIDTH 640 0
DWIDTH 16 0
BBX 13 13 1 1
BITMAP
FFE0
FFF0
3878
3838
7838
7838
7838
7838
7838
7838
7838
7838
7838
ENDCHAR
STARTCHAR 05D8
ENCODING 1496
SWIDTH 640 0
DWIDTH 16 0
BBX 13 13 2 0
BITMAP
63C0
E7F8
E738
E638
E638
E038
E078
F070
F070
70E0
71E0
7F80
7E00
ENDCHAR
STARTCHAR 05D9
ENCODING 1497
SWIDTH 360 0
DWIDTH 9 0
BBX 6 8 1 5
BITMAP
FC
FC
1C
1C
1C
1C
1C
1C
ENDCHAR
STARTCHAR 05DA
ENCODING 1498
SWIDTH 520 0
DWIDTH 13 0
BBX 10 17 1 -3
BITMAP
FFC0
FFC0
01C0
01C0
01C0
01C0
01C0
01C0
01C0
01C0
01C0
01C0
01C0
01C0
01C0
01C0
01C0
ENDCHAR
STARTCHAR 05DB
ENCODING 1499
SWIDTH 520 0
DWIDTH 13 0
BBX 11 13 1 1
BITMAP
7F80
7FC0
01C0
01E0
01E0
01E0
01E0
01E0
00E0
00E0
00E0
FFE0
FFE0
ENDCHAR
STARTCHAR 05DC
ENCODING 1500
SWIDTH 520 0
DWIDTH 13 0
BBX 11 16 1 0
BITMAP
F000
F000
F000
FFE0
FFE0
01E0
01E0
01E0
01E0
01E0
03C0
07C0
0780
0F00
1E00
0C00
ENDCHAR
STARTCHAR 05DD
ENCODING 1501
SWIDTH 600 0
DWIDTH 15 0
BBX 13 13 1 1
BITMAP
FFE0
FFF0
7070
7078
7078
7078
7078
7078
7078
7078
7078
7FF8
7FF8
ENDCHAR
STARTCHAR 05DE
ENCODING 1502
SWIDTH 640 0
DWIDTH 16 0
BBX 13 13 1 1
BITMAP
71E0
77F0
7C78
3838
3838
7838
7838
7838
7038
7038
7038
71F8
F1F8
ENDCHAR
STARTCHAR 05DF
ENCODING 1503
SWIDTH 360 0
DWIDTH 9 0
BBX 6 17 1 -4
BITMAP
FC
FC
1C
1C
1C
1C
1C
1C
1C
1C
1C
1C
1C
1C
1C
1C
1C
ENDCHAR
STARTCHAR 05E0
ENCODING 1504
SWIDTH 440 0
DWIDTH 11 0
BBX 8 13 1 0
BITMAP
7E
7E
0F
0F
07
07
07
07
07
07
07
FF
FF
ENDCHAR
STARTCHAR 05E1
ENCODING 1505
SWIDTH 600 0
DWIDTH 15 0
BBX 13 13 1 1
BITMAP
FFE0
FFF0
3870
7870
7078
7078
7078
7078
7070
3870
38F0
1FE0
0F80
ENDCHAR
STARTCHAR 05E2
ENCODING 1506
SWIDTH 600 0
DWIDTH 15 0
BBX 13 14 1 -1
BITMAP
C0E0
F0F8
3838
3838
3C38
1C78
1C70
0EF0
0FE0
0FC0
0F80
3E00
FC00
6000
ENDCHAR
STARTCHAR 05E3
ENCODING 1507
SWIDTH 560 0
DWIDTH 14 0
BBX 11 17 2 -3
BITMAP
3800
7F00
7FC0
F1C0
E1E0
E1E0
F9E0
71E0
11E0
01E0
01E0
01E0
01E0
01E0
01E0
01E0
01E0
ENDCHAR
STARTCHAR 05E4
ENCODING 1508
SWIDTH 560 0
DWIDTH 14 0
BBX 12 13 1 1
BITMAP
1E00
3FC0
3FE0
78E0
70F0
F8F0
78F0
10F0
00F0
00F0
00F0
FFE0
FFE0
ENDCHAR
STARTCHAR 05E5
ENCODING 1509
SWIDTH 600 0
DWIDTH 15 0
BBX 12 17 1 -4
BITMAP
21C0
F1F0
7070
78F0
38F0
39E0
3DC0
1FC0
1F00
0E00
0F00
0700
0780
0380
03C0
01C0
0180
ENDCHAR
STARTCHAR 05E6
ENCODING 1510
SWIDTH 600 0
DWIDTH 15 0
BBX 12 13 1 0
BITMAP
61C0
E1F0
F070
7870
3CE0
1CE0
1FE0
0FC0
0780
03C0
01C0
FFE0
FFE0
ENDCHAR
STARTCHAR 05E7
ENCODING 1511
SWIDTH 600 0
DWIDTH 15 0
BBX 12 17 2 -3
BITMAP
FFF0
FFF0
0070
0070
00F0
E0F0
E0F0
E1E0
E1E0
E3C0
E780
E700
E300
E000
E000
E000
E000
ENDCHAR
STARTCHAR 05E8
ENCODING 1512
SWIDTH 520 0
DWIDTH 13 0
BBX 10 13 1 1
BITMAP
FF80
FFC0
01C0
01C0
01C0
01C0
01C0
01C0
01C0
01C0
01C0
01C0
01C0
ENDCHAR
STARTCHAR 05E9
ENCODING 1513
SWIDTH 720 0
DWIDTH 18 0
BBX 16 13 1 0
BITMAP
21C7
F3CF
73CF
738F
738F
778E
730E
701E
701C
703C
70F8
7FE0
7F80
ENDCHAR
STARTCHAR 05EA
ENCODING 1514
SWIDTH 640 0
DWIDTH 16 0
BBX 13 13 1 1
BITMAP
7FE0
7FF8
1C38
3838
3838
3838
3838
3838
3838
3C38
3C38
FC38
FC38
ENDCHAR
STARTCHAR 05F3
ENCODING 1523
SWIDTH 240 0
DWIDTH 6 0
BBX 4 7 1 11
BITMAP
70
70
70
70
60
E0
C0
ENDCHAR
STARTCHAR 05F4
ENCODING 1524
SWIDTH 440 0
DWIDTH 11 0
BBX 10 7 1 11
BITMAP
7380
73C0
73C0
7380
6380
E300
C600
ENDCHAR
STARTCHAR 1E80
ENCODING 7808
SWIDTH 920 0
DWIDTH 23 0
BBX 21 25 1 0
BITMAP
00E000
01E000
01C000
00C000
00E000
006000
000000
E0F078
E0F878
E0F878
F1F878
F1DC70
F1DC70
71DC70
738C70
738E70
738E70
730EF0
7707F0
7F07F0
7F07E0
7E07E0
3E03E0
3E03E0
3E03E0
ENDCHAR
STARTCHAR 1E81
ENCODING 7809
SWIDTH 760 0
DWIDTH 19 0
BBX 17 21 1 0
BITMAP
070000
070000
070000
070000
030000
018000
000000
000000
E1C380
E1C780
E1C380
F1E380
70E380
70E380
71E380
79F300
3BF700
3B7700
3F7E00
3E7C00
1E3C00
ENDCHAR
STARTCHAR 1E82
ENCODING 7810
SWIDTH 920 0
DWIDTH 23 0
BBX 21 25 1 0
BITMAP
003800
003C00
001800
003800
003000
003000
000000
E0F078
E0F878
E0F878
F1F878
F1DC70
F1DC70
71DC70
738C70
738E70
738E70
730EF0
7707F0
7F07F0
7F07E0
7E07E0
3E03E0
3E03E0
3E03E0
ENDCHAR
STARTCHAR 1E83
ENCODING 7811
SWIDTH 760 0
DWIDTH 19 0
BBX 17 21 1 0
BITMAP
00E000
00E000
00E000
00C000
01C000
018000
000000
000000
E1C380
E1C780
E1C380
F1E380
70E380
70E380
71E380
79F300
3BF700
3B7700
3F7E00
3E7C00
1E3C00
ENDCHAR
STARTCHAR 1E84
ENCODING 7812
SWIDTH 920 0
DWIDTH 23 0
BBX 21 22 1 0
BITMAP
038E00
038E00
038E00
000000
E0F078
E0F878
E0F878
F1F878
F1DC70
F1DC70
71DC70
738C70
738E70
738E70
730EF0
7707F0
7F07F0
7F07E0
7E07E0
3E03E0
3E03E0
3E03E0
ENDCHAR
STARTCHAR 1E85
ENCODING 7813
SWIDTH 760 0
DWIDTH 19 0
BBX 17 18 1 0
BITMAP
0C7000
1E7000
0C7000
000000
000000
E1C380
E1C780
E1C380
F1E380
70E380
70E380
71E380
79F300
3BF700
3B7700
3F7E00
3E7C00
1E3C00
ENDCHAR
STARTCHAR 1EF2
ENCODING 7922
SWIDTH 680 0
DWIDTH 17 0
BBX 15 25 1 0
BITMAP
0700
0F00
0600
0700
0300
0300
0000
F01E
701E
783C
383C
3C78
1C78
1EF0
0EF0
0FE0
07E0
07C0
03C0
0380
0380
0380
0380
0380
0380
ENDCHAR
STARTCHAR 1EF3
ENCODING 7923
SWIDTH 640 0
DWIDTH 16 0
BBX 12 26 2 -5
BITMAP
1C00
1C00
1C00
1C00
0C00
0600
0000
0000
E0F0
E0F0
E0F0
E0F0
E0F0
E0F0
E0F0
E0F0
E0F0
E1F0
F3F0
7EF0
3CF0
00F0
00E0
21E0
7FC0
3F00
ENDCHAR
STARTCHAR 2000
ENCODING 8192
SWIDTH 520 0
DWIDTH 13 0
BBX 0 0 0 0
BITMAP
ENDCHAR
STARTCHAR 2001
ENCODING 8193
SWIDTH 1000 0
DWIDTH 25 0
BBX 0 0 0 0
BITMAP
ENDCHAR
STARTCHAR 2002
ENCODING 8194
SWIDTH 520 0
DWIDTH 13 0
BBX 0 0 0 0
BITMAP
ENDCHAR
STARTCHAR 2003
ENCODING 8195
SWIDTH 1000 0
DWIDTH 25 0
BBX 0 0 0 0
BITMAP
ENDCHAR
STARTCHAR 2004
ENCODING 8196
SWIDTH 320 0
DWIDTH 8 0
BBX 0 0 0 0
BITMAP
ENDCHAR
STARTCHAR 2005
ENCODING 8197
SWIDTH 240 0
DWIDTH 6 0
BBX 0 0 0 0
BITMAP
ENDCHAR
STARTCHAR 2006
ENCODING 8198
SWIDTH 160 0
DWIDTH 4 0
BBX 0 0 0 0
BITMAP
ENDCHAR
STARTCHAR 2007
ENCODING 8199
SWIDTH 160 0
DWIDTH 4 0
BBX 0 0 0 0
BITMAP
ENDCHAR
STARTCHAR 2008
ENCODING 8200
SWIDTH 120 0
DWIDTH 3 0
BBX 0 0 0 0
BITMAP
ENDCHAR
STARTCHAR 2009
ENCODING 8201
SWIDTH 200 0
DWIDTH 5 0
BBX 0 0 0 0
BITMAP
ENDCHAR
STARTCHAR 200A
ENCODING 8202
SWIDTH 40 0
DWIDTH 1 0
BBX 0 0 0 0
BITMAP
ENDCHAR
STARTCHAR 200E
ENCODING 8206
SWIDTH 280 0
DWIDTH 7 0
BBX 0 0 0 0
BITMAP
ENDCHAR
STARTCHAR 200F
ENCODING 8207
SWIDTH 280 0
DWIDTH 7 0
BBX 0 0 0 0
BITMAP
ENDCHAR
STARTCHAR 2010
ENCODING 8208
SWIDTH 600 0
DWIDTH 15 0
BBX 10 2 2 6
BITMAP
FFC0
FFC0
ENDCHAR
STARTCHAR 2011
ENCODING 8209
SWIDTH 600 0
DWIDTH 15 0
BBX 10 2 2 6
BITMAP
FFC0
FFC0
ENDCHAR
STARTCHAR 2012
ENCODING 8210
SWIDTH 600 0
DWIDTH 15 0
BBX 10 2 2 6
BITMAP
FFC0
FFC0
ENDCHAR
STARTCHAR 2013
ENCODING 8211
SWIDTH 640 0
DWIDTH 16 0
BBX 12 2 2 6
BITMAP
FFF0
FFF0
ENDCHAR
STARTCHAR 2014
ENCODING 8212
SWIDTH 640 0
DWIDTH 16 0
BBX 16 2 0 6
BITMAP
FFFF
FFFF
ENDCHAR
STARTCHAR 2018
ENCODING 8216
SWIDTH 240 0
DWIDTH 6 0
BBX 4 7 1 11
BITMAP
30
70
60
E0
E0
F0
40
ENDCHAR
STARTCHAR 2019
ENCODING 8217
SWIDTH 240 0
DWIDTH 6 0
BBX 4 7 1 11
BITMAP
70
70
70
70
60
E0
C0
ENDCHAR
STARTCHAR 201A
ENCODING 8218
SWIDTH 240 0
DWIDTH 6 0
BBX 4 7 1 0
BITMAP
70
70
70
70
60
E0
C0
ENDCHAR
STARTCHAR 201C
ENCODING 8220
SWIDTH 480 0
DWIDTH 12 0
BBX 9 7 1 11
BITMAP
3180
7180
6380
E700
E780
F780
4000
ENDCHAR
STARTCHAR 201D
ENCODING 8221
SWIDTH 440 0
DWIDTH 11 0
BBX 10 7 1 11
BITMAP
7380
73C0
73C0
7380
6380
E300
C600
ENDCHAR
STARTCHAR 201E
ENCODING 8222
SWIDTH 480 0
DWIDTH 12 0
BBX 10 7 1 0
BITMAP
7380
73C0
73C0
7380
6380
E300
C700
ENDCHAR
STARTCHAR 2020
ENCODING 8224
SWIDTH 280 0
DWIDTH 7 0
BBX 0 0 0 0
BITMAP
ENDCHAR
STARTCHAR 2021
ENCODING 8225
SWIDTH 280 0
DWIDTH 7 0
BBX 0 0 0 0
BITMAP
ENDCHAR
STARTCHAR 2022
ENCODING 8226
SWIDTH 320 0
DWIDTH 8 0
BBX 4 5 2 5
BITMAP
E0
F0
F0
F0
60
ENDCHAR
STARTCHAR 2026
ENCODING 8230
SWIDTH 920 0
DWIDTH 23 0
BBX 19 3 2 0
BITMAP
60E0C0
F0E1E0
60E0C0
ENDCHAR
STARTCHAR 202F
ENCODING 8239
SWIDTH 200 0
DWIDTH 5 0
BBX 0 0 0 0
BITMAP
ENDCHAR
STARTCHAR 2030
ENCODING 8240
SWIDTH 920 0
DWIDTH 23 0
BBX 21 18 1 0
BITMAP
3C0000
660000
460000
C60000
460000
661800
3C3800
00E000
03C000
0F0000
1C0000
70F0F0
619998
018918
018B18
018918
019998
00F0F0
ENDCHAR
STARTCHAR 2039
ENCODING 8249
SWIDTH 480 0
DWIDTH 12 0
BBX 6 12 3 0
BITMAP
08
1C
3C
38
70
E0
E0
70
38
1C
1C
08
ENDCHAR
STARTCHAR 203A
ENCODING 8250
SWIDTH 480 0
DWIDTH 12 0
BBX 7 12 3 0
BITMAP
40
E0
F0
78
3C
1E
1E
3C
78
F0
E0
40
ENDCHAR
STARTCHAR 2044
ENCODING 8260
SWIDTH 880 0
DWIDTH 22 0
BBX 18 18 2 0
BITMAP
0001C0
000380
000700
000E00
001C00
003C00
007800
007000
00E000
01C000
038000
070000
0E0000
1C0000
3C0000
780000
700000
E00000
ENDCHAR
STARTCHAR 205F
ENCODING 8287
SWIDTH 240 0
DWIDTH 6 0
BBX 0 0 0 0
BITMAP
ENDCHAR
STARTCHAR 20AA
ENCODING 8362
SWIDTH 960 0
DWIDTH 24 0
BBX 22 13 1 0
BITMAP
FFFC18
FFFE3C
380E3C
780E3C
780E38
79CE38
79CE38
79C078
79C070
79C0F0
79C3E0
79FF80
79FE00
ENDCHAR
STARTCHAR 20AC
ENCODING 8364
SWIDTH 560 0
DWIDTH 14 0
BBX 12 18 1 0
BITMAP
0FF0
1FE0
1E00
1C00
1C00
1C00
FFC0
FFC0
1C00
1C00
FFC0
FFC0
1C00
1C00
1C00
1C00
1FE0
0FF0
ENDCHAR
STARTCHAR 2122
ENCODING 8482
SWIDTH 880 0
DWIDTH 22 0
BBX 20 9 1 9
BITMAP
FF30E0
1878E0
1879E0
1879E0
186DE0
186F60
186F60
186770
186630
ENDCHAR
STARTCHAR E000
ENCODING 57344
SWIDTH 520 0
DWIDTH 13 0
BBX 13 13 0 0
BITMAP
FFF8
FFF8
FFF8
FFF8
FFF8
FFF8
FFF8
FFF8
FFF8
FFF8
FFF8
FFF8
FFF8
ENDCHAR
STARTCHAR FB01
ENCODING 64257
SWIDTH 800 0
DWIDTH 20 0
BBX 17 19 1 0
BITMAP
000300
0FE780
1FE780
1C0300
3C0000
3C0000
FFFF80
FFFF80
3C0780
3C0780
3C0780
3C0780
3C0780
3C0780
3C0780
3C0780
3C0780
FFC780
FFC780
ENDCHAR
STARTCHAR FB02
ENCODING 64258
SWIDTH 800 0
DWIDTH 20 0
BBX 17 18 1 0
BITMAP
0FE780
1FE780
1C0780
3C0780
3C0780
FFC780
FFC780
3C0780
3C0780
3C0780
3C0780
3C0780
3C0780
3C0780
3C0780
3C0780
FFFF80
FFFF80
ENDCHAR
STARTCHAR FB2A
ENCODING 64298
SWIDTH 720 0
DWIDTH 18 0
BBX 16 17 1 0
BITMAP
0006
0006
0000
0000
21C7
F3CF
73CF
738F
738F
778E
730E
701E
701C
703C
70F8
7FE0
7F80
ENDCHAR
STARTCHAR FB2B
ENCODING 64299
SWIDTH 720 0
DWIDTH 18 0
BBX 18 17 -1 0
BITMAP
C00000
C00000
000000
000000
0871C0
3CF3C0
1CF3C0
1CE3C0
1CE3C0
1DE380
1CC380
1C0780
1C0700
1C0F00
1C3E00
1FF800
1FE000
ENDCHAR
STARTCHAR FB2C
ENCODING 64300
SWIDTH 720 0
DWIDTH 18 0
BBX 16 17 1 0
BITMAP
0006
0006
0000
0000
21C7
F3CF
73CF
738F
738F
778E
736E
707E
701C
703C
70F8
7FE0
7F80
ENDCHAR
STARTCHAR FB2D
ENCODING 64301
SWIDTH 720 0
DWIDTH 18 0
BBX 18 17 -1 0
BITMAP
C00000
C00000
000000
000000
0871C0
3CF3C0
1CF3C0
1CE3C0
1CE3C0
1DE380
1CDB80
1C1F80
1C0700
1C0F00
1C3E00
1FF800
1FE000
ENDCHAR
STARTCHAR FB2E
ENCODING 64302
SWIDTH 600 0
DWIDTH 15 0
BBX 12 17 2 -4
BITMAP
61E0
E1F0
F070
7070
78F0
7CE0
FFE0
EFC0
E780
E3C0
E1E0
E0F0
E060
0000
0000
3F00
3F00
ENDCHAR
STARTCHAR FB2F
ENCODING 64303
SWIDTH 600 0
DWIDTH 15 0
BBX 12 20 2 -7
BITMAP
61E0
E1F0
F070
7070
78F0
7CE0
FFE0
EFC0
E780
E3C0
E1E0
E0F0
E060
0000
0000
3F00
3F00
0400
0C00
0C00
ENDCHAR
STARTCHAR FB30
ENCODING 64304
SWIDTH 600 0
DWIDTH 15 0
BBX 12 13 2 -1
BITMAP
61E0
E1F0
F070
7070
78F0
7CE0
FFE0
EFC0
E780
E3C0
EDE0
ECF0
E060
ENDCHAR
STARTCHAR FB31
ENCODING 64305
SWIDTH 560 0
DWIDTH 14 0
BBX 13 13 1 1
BITMAP
7F00
7FC0
01C0
01C0
01C0
01C0
19C0
19C0
01C0
01C0
01C0
FFF8
FFF8
ENDCHAR
STARTCHAR FB32
ENCODING 64306
SWIDTH 440 0
DWIDTH 11 0
BBX 9 13 1 0
BITMAP
3F00
3F00
0700
0700
0700
6700
6700
0F00
1F00
1F80
7B80
F380
C380
ENDCHAR
STARTCHAR FB33
ENCODING 64307
SWIDTH 560 0
DWIDTH 14 0
BBX 12 13 1 1
BITMAP
7FF0
FFF0
03C0
03C0
03C0
03C0
33C0
33C0
03C0
03C0
03C0
03C0
03C0
ENDCHAR
STARTCHAR FB34
ENCODING 64308
SWIDTH 600 0
DWIDTH 15 0
BBX 11 13 2 1
BITMAP
FF80
FFC0
01E0
00E0
0CE0
CCE0
E0E0
E0E0
E0E0
E0E0
E0E0
E0E0
E0E0
ENDCHAR
STARTCHAR FB35
ENCODING 64309
SWIDTH 360 0
DWIDTH 9 0
BBX 7 13 0 0
BITMAP
3E
3E
0E
0E
0E
0E
CE
CE
0E
0E
0E
0E
0E
ENDCHAR
STARTCHAR FB36
ENCODING 64310
SWIDTH 440 0
DWIDTH 11 0
BBX 9 13 1 1
BITMAP
FF80
FF80
1C00
1E00
1E00
0E00
CE00
CE00
0E00
0E00
0F00
0F00
0700
ENDCHAR
STARTCHAR FB38
ENCODING 64312
SWIDTH 640 0
DWIDTH 16 0
BBX 13 13 2 0
BITMAP
63C0
E7F8
E738
E638
E638
E038
E078
F670
F270
70E0
71E0
7F80
7E00
ENDCHAR
STARTCHAR FB39
ENCODING 64313
SWIDTH 360 0
DWIDTH 9 0
BBX 7 8 0 5
BITMAP
7E
7E
0E
0E
CE
CE
0E
0E
ENDCHAR
STARTCHAR FB3A
ENCODING 64314
SWIDTH 520 0
DWIDTH 13 0
BBX 10 17 1 -3
BITMAP
FFC0
FFC0
01C0
01C0
01C0
01C0
19C0
19C0
01C0
01C0
01C0
01C0
01C0
01C0
01C0
01C0
01C0
ENDCHAR
STARTCHAR FB3B
ENCODING 64315
SWIDTH 520 0
DWIDTH 13 0
BBX 11 13 1 1
BITMAP
7F80
7FC0
01C0
01E0
01E0
01E0
19E0
19E0
00E0
00E0
00E0
FFE0
FFE0
ENDCHAR
STARTCHAR FB3C
ENCODING 64316
SWIDTH 520 0
DWIDTH 13 0
BBX 11 16 1 0
BITMAP
F000
F000
F000
FFE0
FFE0
01E0
01E0
01E0
11E0
39E0
03C0
07C0
0780
0F00
1E00
0C00
ENDCHAR
STARTCHAR FB3E
ENCODING 64318
SWIDTH 640 0
DWIDTH 16 0
BBX 13 13 1 1
BITMAP
71E0
77F0
7C78
3838
3838
7838
7938
7B38
7038
7038
7038
71F8
F1F8
ENDCHAR
STARTCHAR FB40
ENCODING 64320
SWIDTH 440 0
DWIDTH 11 0
BBX 8 13 1 0
BITMAP
7E
7E
0F
0F
07
07
47
67
07
07
07
FF
FF
ENDCHAR
STARTCHAR FB41
ENCODING 64321
SWIDTH 600 0
DWIDTH 15 0
BBX 13 13 1 1
BITMAP
FFE0
FFF0
3870
7870
7078
7078
7378
7378
7070
3870
38F0
1FE0
0F80
ENDCHAR
STARTCHAR FB43
ENCODING 64323
SWIDTH 560 0
DWIDTH 14 0
BBX 11 17 2 -3
BITMAP
3800
7F00
7FC0
F1C0
EDE0
EDE0
F9E0
71E0
11E0
01E0
01E0
01E0
01E0
01E0
01E0
01E0
01E0
ENDCHAR
STARTCHAR FB44
ENCODING 64324
SWIDTH 560 0
DWIDTH 14 0
BBX 12 13 1 1
BITMAP
1E00
3FC0
3FE0
78E0
70F0
F8F0
78F0
16F0
07F0
02F0
00F0
FFE0
FFE0
ENDCHAR
STARTCHAR FB46
ENCODING 64326
SWIDTH 600 0
DWIDTH 15 0
BBX 12 13 1 0
BITMAP
61C0
E1F0
F070
7870
3CE0
1CE0
1FE0
0FC0
6780
63C0
01C0
FFE0
FFE0
ENDCHAR
STARTCHAR FB47
ENCODING 64327
SWIDTH 600 0
DWIDTH 15 0
BBX 12 17 2 -3
BITMAP
FFF0
FFF0
0070
0070
06F0
E6F0
E0F0
E1E0
E1E0
E3C0
E780
E700
E300
E000
E000
E000
E000
ENDCHAR
STARTCHAR FB48
ENCODING 64328
SWIDTH 520 0
DWIDTH 13 0
BBX 10 13 1 1
BITMAP
FF80
FFC0
01C0
01C0
01C0
01C0
31C0
31C0
01C0
01C0
01C0
01C0
01C0
ENDCHAR
STARTCHAR FB49
ENCODING 64329
SWIDTH 720 0
DWIDTH 18 0
BBX 16 13 1 0
BITMAP
21C7
F3CF
73CF
738F
738F
778E
736E
707E
701C
703C
70F8
7FE0
7F80
ENDCHAR
STARTCHAR FB4A
ENCODING 64330
SWIDTH 640 0
DWIDTH 16 0
BBX 13 13 1 1
BITMAP
7FE0
7FF8
1C38
3838
3838
3838
39B8
39B8
3838
3C38
3C38
FC38
FC38
ENDCHAR
STARTCHAR FB4B
ENCODING 64331
SWIDTH 360 0
DWIDTH 9 0
BBX 5 17 2 0
BITMAP
20
30
00
00
F8
F8
38
38
38
38
38
38
38
38
38
38
38
ENDCHAR
ENDFONT
